<svg width="375" height="812" viewBox="0 0 375 812" fill="none" xmlns="http://www.w3.org/2000/svg">
<g clip-path="url(#clip0_129_2089)">
<rect width="375" height="812" rx="40" fill="#FCF5EF"/>
<rect x="121" y="799" width="134" height="5" rx="2.5" fill="black"/>
<rect x="17.5" y="300.5" width="340" height="40" rx="20" fill="#FCF5EF" stroke="#FEA735" stroke-width="3"/>
<path d="M43.3156 316.172V322.71H41.9016V316.172H43.3156ZM44.1556 323.578V315.318H41.0616V324.922H41.9016V323.578H44.1556ZM46.7456 317.096C46.7596 316.214 46.7736 315.29 46.7736 314.338H45.8636C45.8636 315.304 45.8636 316.228 45.8496 317.096H44.6596V318.034H45.8216C45.7236 321.716 45.3176 324.67 43.5536 326.448C43.7776 326.588 44.1136 326.896 44.2816 327.12C46.1856 325.132 46.6196 321.982 46.7316 318.034H47.9356C47.7816 323.396 47.6136 325.258 47.3056 325.678C47.1796 325.874 47.0816 325.902 46.8996 325.902C46.6896 325.902 46.2836 325.902 45.8356 325.86C45.9756 326.126 46.0736 326.518 46.0736 326.798C46.5356 326.84 46.9976 326.826 47.3056 326.798C47.6416 326.742 47.8796 326.63 48.1036 326.294C48.5236 325.692 48.6776 323.746 48.8596 317.586C48.8736 317.474 48.8736 317.096 48.8736 317.096H46.7456ZM50.2736 324.446V316.858H52.0096V324.446H50.2736ZM49.4196 315.92V326.56H50.2736V325.384H52.0096V326.448H52.9056V315.92H49.4196ZM57.7076 316.55V322.024H55.9576V316.55H57.7076ZM58.6456 322.976V315.584H55.0336V324.208H55.9576V322.976H58.6456ZM62.8876 321.73L62.3136 321.926C62.3416 321.492 62.3556 321.058 62.3556 320.61V314.408H61.3616V316.648H59.0236V317.614H61.3616V319.546H59.1216V320.498H61.3616V320.596C61.3616 321.156 61.3476 321.716 61.2776 322.276C60.2136 322.626 59.2056 322.948 58.4636 323.158L58.8696 324.096C59.5416 323.858 60.2976 323.578 61.0816 323.27C60.7736 324.502 60.0876 325.608 58.6736 326.448C58.9256 326.602 59.2756 326.924 59.4436 327.12C61.2216 326.042 61.9356 324.53 62.2156 322.836L63.0276 322.514L62.8876 321.73ZM67.3536 322.472H64.6096V320.498H67.0456V319.546H64.6096V317.614H67.2136V316.648H64.6096V314.38H63.6016V327.05H64.6096V323.438H67.3536V322.472Z" fill="black"/>
<rect x="225" y="729" width="120" height="43" rx="21.5" fill="#FEA735"/>
<path d="M270.005 744.12H282.263V746.622H283.649V742.86H276.809V740.952H275.423V742.86H268.655V746.622H270.005V744.12ZM281.003 747.36V746.118H271.301V747.36H281.003ZM279.671 755.838C278.915 755.838 278.789 755.73 278.789 755.226V750.672H284.081V749.412H268.241V750.672H272.885C272.561 753.39 271.679 755.316 267.845 756.27C268.133 756.522 268.493 757.08 268.637 757.404C272.831 756.234 273.893 753.93 274.307 750.672H277.457V755.226C277.457 756.648 277.889 757.062 279.527 757.062H282.299C283.721 757.062 284.117 756.432 284.261 753.984C283.901 753.876 283.343 753.66 283.037 753.462C282.983 755.514 282.857 755.838 282.191 755.838H279.671ZM296.861 741.834C297.995 742.446 299.363 743.364 300.047 743.994L300.875 743.076C300.173 742.446 298.769 741.582 297.653 741.024L296.861 741.834ZM299.417 746.694C298.859 748.512 298.085 750.132 297.113 751.554C296.627 749.844 296.303 747.702 296.123 745.308H301.847V743.994H296.033C295.979 743.022 295.961 742.014 295.961 740.97H294.575C294.593 741.996 294.611 743.004 294.683 743.994H287.177V749.016C287.177 751.338 287.015 754.416 285.539 756.612C285.845 756.774 286.421 757.242 286.655 757.512C288.275 755.172 288.545 751.554 288.545 749.034V748.89H291.821C291.749 751.986 291.659 753.12 291.407 753.39C291.299 753.552 291.119 753.588 290.867 753.588C290.561 753.588 289.787 753.57 288.959 753.498C289.175 753.84 289.319 754.344 289.337 754.758C290.219 754.794 291.029 754.794 291.479 754.758C291.983 754.704 292.289 754.578 292.559 754.236C292.937 753.768 293.045 752.256 293.135 748.224V747.648H288.545V745.308H294.755C294.989 748.206 295.421 750.852 296.069 752.886C294.917 754.236 293.531 755.352 291.929 756.216C292.235 756.468 292.703 757.008 292.901 757.278C294.287 756.468 295.529 755.46 296.609 754.29C297.437 756.144 298.517 757.242 299.903 757.242C301.271 757.242 301.757 756.36 302.009 753.3C301.649 753.192 301.163 752.886 300.857 752.58C300.731 754.974 300.515 755.91 300.011 755.91C299.093 755.91 298.265 754.884 297.599 753.12C298.931 751.41 299.993 749.358 300.767 747.036L299.417 746.694Z" fill="black"/>
<g clip-path="url(#clip1_129_2089)">
<path d="M38 86.0007C50.1506 86.0007 60.0007 76.1506 60.0007 64C60.0007 51.8493 50.1506 41.9993 38 41.9993C25.8493 41.9993 15.9993 51.8493 15.9993 64C15.9993 76.1506 25.8493 86.0007 38 86.0007Z" fill="black"/>
<path d="M38 86.0007C50.1506 86.0007 60.0007 76.1506 60.0007 64C60.0007 51.8493 50.1506 41.9993 38 41.9993C25.8493 41.9993 15.9993 51.8493 15.9993 64C15.9993 76.1506 25.8493 86.0007 38 86.0007Z" fill="#FEA735"/>
<path d="M46.657 62.4124L32.8639 62.2907L37.8623 56.5786C38.4398 55.9186 38.3728 54.9159 37.7127 54.3384C37.053 53.7613 36.0496 53.8279 35.4725 54.4877L28.3457 62.6325C28 62.9208 27.7739 63.348 27.7693 63.8331C27.7693 63.8405 27.7714 63.8479 27.7714 63.8553C27.764 64.2321 27.8882 64.6117 28.1485 64.9172L35.4594 73.496C35.7734 73.8643 36.2193 74.0538 36.6684 74.0538C37.0325 74.0538 37.3983 73.9292 37.6975 73.6745C38.365 73.1058 38.4447 72.1035 37.876 71.4364L32.7867 65.4654L46.6288 65.5875C46.6337 65.5875 46.6383 65.5875 46.6432 65.5875C47.5135 65.5875 48.2227 64.8858 48.2304 64.014C48.2382 63.1374 47.534 62.4201 46.657 62.4124Z" fill="black"/>
</g>
<path d="M145.52 64.56V62.136H151.232V63.096C151.232 63.576 151.232 64.08 151.184 64.56H145.52ZM145.52 58.32H151.232V60.72H145.52V58.32ZM159.104 58.32V60.72H153.056V58.32H159.104ZM159.104 64.56H153.008C153.032 64.104 153.056 63.6 153.056 63.12V62.136H159.104V64.56ZM160.856 66.048V56.832H153.056V54.816H162.368V53.208H141.632V54.816H151.232V56.832H143.816V66.048H150.944C150.656 67.2 150.104 68.28 149 69.216C147.872 68.472 146.912 67.488 146.096 66.24L144.608 66.84C145.424 68.232 146.408 69.336 147.56 70.224C146.096 71.064 144.056 71.736 141.2 72.288C141.584 72.696 142.064 73.44 142.256 73.848C145.376 73.2 147.608 72.312 149.216 71.256C152.48 72.984 156.848 73.512 162.392 73.752C162.488 73.176 162.824 72.432 163.136 72C157.808 71.856 153.68 71.496 150.656 70.128C151.856 68.904 152.504 67.536 152.792 66.048H160.856ZM177.968 57.984H183.272C182.744 61.2 181.928 63.864 180.68 66.024C179.408 63.72 178.52 61.008 177.944 58.032L177.968 57.984ZM187.016 57.984V56.28H178.592C179.024 55.008 179.384 53.664 179.672 52.272L177.824 51.936C177.104 55.704 175.76 59.256 173.84 61.608V54.024H165.752V55.68H172.112V60.384H165.752V68.016C165.752 70.056 166.352 70.56 168.464 70.56H172.16C174.008 70.56 174.512 69.792 174.728 66.768C174.224 66.648 173.48 66.36 173.12 66.072C173.048 68.496 172.904 68.88 172.016 68.88H168.632C167.648 68.88 167.456 68.76 167.456 67.992V62.016H172.112V62.928H173.84V62.136C174.272 62.424 174.848 62.832 175.136 63.048C175.736 62.304 176.288 61.44 176.816 60.48C177.488 63.168 178.376 65.592 179.552 67.656C177.92 69.72 175.688 71.256 172.664 72.336C173 72.72 173.552 73.512 173.744 73.92C176.648 72.744 178.856 71.208 180.56 69.192C182 71.184 183.776 72.744 186.032 73.8C186.32 73.32 186.896 72.624 187.28 72.288C184.976 71.304 183.128 69.72 181.688 67.68C183.344 65.136 184.4 61.968 185.072 57.984H187.016ZM202.208 55.008C201.632 57.192 200.192 58.392 196.28 59.088C196.568 59.4 196.976 59.976 197.12 60.36C200.528 59.688 202.304 58.56 203.24 56.784C204.128 58.512 205.88 60.048 209.96 60.768C210.128 60.336 210.536 59.664 210.872 59.328C205.952 58.608 204.608 56.856 204.08 55.008H207.92C207.488 55.704 206.96 56.376 206.456 56.856L207.872 57.36C208.736 56.52 209.624 55.176 210.296 53.952L209.096 53.592L208.808 53.664H200.6C200.912 53.16 201.176 52.68 201.416 52.176L199.808 51.912C199.184 53.352 197.984 54.96 196.184 56.208C196.616 56.376 197.192 56.76 197.528 57.096C198.368 56.448 199.064 55.752 199.664 55.008H202.208ZM194.12 67.152H206.144V68.832H194.12V67.152ZM194.12 64.344H206.144V66H194.12V64.344ZM194.12 61.584H206.144V63.192H194.12V61.584ZM192.392 70.008H207.92V60.384H192.392V70.008ZM196.184 54.288C195.032 53.688 192.824 52.896 191.168 52.44L190.376 53.664C192.08 54.192 194.288 55.032 195.392 55.68L196.184 54.288ZM195.896 56.904C193.448 57.576 190.928 58.296 189.2 58.704L189.896 60.264C191.696 59.688 193.952 58.992 196.112 58.296L195.896 56.904ZM196.4 70.248C194.696 71.208 191.816 72.048 189.368 72.552C189.776 72.864 190.376 73.56 190.688 73.896C193.064 73.248 196.064 72.144 198.008 71.016L196.4 70.248ZM201.992 71.232C204.608 72.096 207.2 73.104 208.688 73.872L210.656 72.984C208.904 72.192 206.048 71.16 203.456 70.32L201.992 71.232ZM229.064 56.544C228.296 55.656 226.64 54.432 225.296 53.616L224.384 54.816C225.752 55.704 227.384 57 228.152 57.912L229.064 56.544ZM228.032 62.28C227.192 61.416 225.416 60.336 224 59.592L223.16 60.84C224.6 61.608 226.304 62.832 227.144 63.72L228.032 62.28ZM221.096 53.352C220.736 54.96 220.064 57.336 219.512 58.752L220.664 59.136C221.312 57.792 222.056 55.536 222.632 53.736L221.096 53.352ZM216.104 58.704C215.936 57.264 215.384 55.104 214.688 53.448L213.392 53.76C214.016 55.44 214.568 57.648 214.688 59.088L216.104 58.704ZM218.72 61.608H222.632V59.928H218.72V52.008H217.064V59.928H213.224V61.608H216.584C215.744 64.296 214.232 67.392 212.84 69.072C213.128 69.504 213.56 70.296 213.752 70.8C214.952 69.192 216.176 66.528 217.064 63.96V73.824H218.72V63.984C219.584 65.328 220.712 67.176 221.144 68.064L222.32 66.672C221.792 65.856 219.392 62.688 218.72 61.944V61.608ZM235.088 66.528L234.824 64.896L231.992 65.4V51.936H230.312V65.712L222.584 67.08L222.872 68.736L230.312 67.392V73.824H231.992V67.08L235.088 66.528Z" fill="black"/>
<path d="M17 470C17 456.193 28.1929 445 42 445H335C348.807 445 360 456.193 360 470V488H17V470Z" fill="#FEA735"/>
<path d="M150.084 460.742H146.628V462.614C146.628 463.694 147.006 463.964 148.338 463.964H150.75C151.704 463.964 152.046 463.64 152.172 462.434C151.848 462.362 151.416 462.218 151.182 462.056C151.128 462.902 151.038 463.01 150.606 463.01H148.464C147.87 463.01 147.762 462.938 147.762 462.596V461.678H151.272V458.636H146.286V459.572H150.084V460.742ZM144.288 460.742H140.76V462.614C140.76 463.694 141.102 463.964 142.434 463.964H144.666C145.584 463.964 145.926 463.658 146.052 462.488C145.728 462.434 145.296 462.29 145.062 462.11C145.008 462.902 144.918 463.01 144.486 463.01H142.542C141.966 463.01 141.876 462.938 141.876 462.614V461.678H145.422V458.636H140.436V459.572H144.288V460.742ZM144.576 466.52H147.528V468.23H144.576V466.52ZM152.064 468.23H148.806V466.52H151.506V465.494H148.806V464.198H147.528V465.494H144.576V464.198H143.334V465.494H140.67V466.52H143.334V468.23H140.094V469.274H152.064V468.23ZM151.794 471.668C150.948 471.002 149.472 470.138 148.158 469.508L147.204 470.102C148.446 470.732 149.742 471.578 150.498 472.244L151.794 471.668ZM143.928 469.472C143.136 470.192 141.804 470.876 140.58 471.362C140.868 471.542 141.354 471.974 141.57 472.208C142.758 471.632 144.198 470.75 145.116 469.886L143.928 469.472ZM139.752 461.354C139.248 460.454 138.06 459.212 136.998 458.366L135.972 459.05C137.016 459.932 138.168 461.21 138.636 462.11L139.752 461.354ZM139.338 464.99H135.882V466.25H138.096V470.894C137.304 471.65 136.422 472.406 135.666 472.964L136.368 474.206C137.232 473.414 138.042 472.658 138.798 471.866C139.914 473.288 141.552 473.936 143.928 474.026C145.962 474.098 149.85 474.062 151.884 473.972C151.938 473.594 152.154 473 152.316 472.712C150.12 472.856 145.926 472.91 143.892 472.82C141.786 472.73 140.184 472.118 139.338 470.768V464.99ZM159.084 465.512C158.49 465.71 157.896 465.908 157.302 466.088V462.776H159.228V461.552H157.302V457.952H156.06V461.552H153.81V462.776H156.06V466.466C155.124 466.754 154.26 467.024 153.576 467.204L153.918 468.5L156.06 467.798V472.82C156.06 473.09 155.97 473.144 155.754 473.144C155.538 473.162 154.836 473.162 154.062 473.144C154.242 473.504 154.404 474.062 154.458 474.368C155.574 474.386 156.258 474.332 156.69 474.134C157.14 473.918 157.302 473.558 157.302 472.82V467.402L159.264 466.754L159.084 465.512ZM166.482 468.662H162.864L163.368 468.518C163.278 468.086 162.99 467.438 162.72 466.952H166.806C166.608 467.456 166.302 468.104 166.068 468.536L166.482 468.662ZM163.908 459.644H165.69V461.534H163.908V459.644ZM162.828 461.534H161.118V459.644H162.828V461.534ZM166.77 459.644H168.588V461.534H166.77V459.644ZM170.244 465.89H165.348V464.612H169.362V463.604H165.348V462.488H169.704V458.672H160.02V462.488H164.088V463.604H160.218V464.612H164.088V465.89H159.336V466.952H162.288L161.55 467.132C161.802 467.582 162.054 468.194 162.18 468.662H159.498V469.706H164.088V470.984H159.876V472.028H164.088V474.512H165.348V472.028H169.596V470.984H165.348V469.706H169.992V468.662H167.202C167.49 468.194 167.814 467.618 168.156 467.024L167.886 466.952H170.244V465.89ZM185.958 463.154H180.558V459.86H185.958V463.154ZM187.272 458.69H179.334V464.306H187.272V458.69ZM178.614 467.798C178.254 467.384 176.724 465.8 176.166 465.332V464.234H178.416V462.974H176.166V459.932C177.012 459.734 177.804 459.482 178.452 459.212L177.516 458.204C176.202 458.798 173.844 459.32 171.828 459.644C171.99 459.95 172.17 460.382 172.242 460.688C173.07 460.562 173.988 460.418 174.87 460.238V462.974H171.936V464.234H174.69C173.97 466.286 172.728 468.608 171.594 469.868C171.81 470.192 172.134 470.714 172.26 471.092C173.178 469.994 174.132 468.194 174.87 466.376V474.332H176.166V466.628C176.778 467.366 177.516 468.356 177.804 468.86L178.614 467.798ZM183.906 472.694V470.372H187.488V469.202H183.906V467.06H187.884V465.872H178.668V467.06H182.574V469.202H179.082V470.372H182.574V472.694H177.858V473.9H188.28V472.694H183.906ZM205.236 460.22C204.696 459.608 203.562 458.69 202.644 458.078L201.744 458.816C202.662 459.464 203.778 460.436 204.3 461.066L205.236 460.22ZM195.21 466.556H198.576V465.26H190.692V466.556H193.896V471.776C192.456 472.064 191.142 472.334 190.134 472.532L190.548 473.846C192.834 473.342 196.128 472.586 199.17 471.848L199.062 470.678C197.766 470.966 196.47 471.218 195.21 471.488V466.556ZM205.974 462.578V461.282H200.646C200.592 460.22 200.574 459.14 200.574 458.024H199.17C199.188 459.122 199.206 460.22 199.26 461.282H190.062V462.578H199.35C199.818 469.238 201.312 474.404 204.246 474.404C205.614 474.404 206.118 473.486 206.352 470.372C205.974 470.228 205.47 469.94 205.164 469.634C205.056 472.028 204.84 473.018 204.354 473.018C202.572 473.018 201.15 468.644 200.718 462.578H205.974ZM216.126 461.912H217.404V460.562H220.14V461.93H221.436V460.562H223.938V459.428H221.436V457.952H220.14V459.428H217.404V457.952H216.126V459.428H213.516V460.562H216.126V461.912ZM213.606 466.862C213.282 466.304 211.932 464.036 211.464 463.352V462.65H213.318V461.39H211.464V457.934H210.186V461.39H207.972V462.65H210.186C209.7 465.08 208.674 467.942 207.63 469.436C207.864 469.76 208.188 470.336 208.332 470.732C208.998 469.67 209.664 468.032 210.186 466.286V474.368H211.464V465.152C211.95 466.088 212.508 467.24 212.76 467.852L213.606 466.862ZM215.496 465.494H221.724V466.772H215.496V465.494ZM215.496 463.262H221.724V464.54H215.496V463.262ZM223.92 470.408V469.274H218.97C219.06 468.806 219.15 468.302 219.204 467.78H223.002V462.254H214.254V467.78H217.89C217.818 468.302 217.746 468.824 217.638 469.274H213.12V470.408H217.242C216.558 471.776 215.28 472.73 212.652 473.324C212.886 473.576 213.228 474.08 213.336 474.368C216.468 473.612 217.908 472.352 218.628 470.444C219.528 472.406 221.184 473.738 223.488 474.368C223.668 474.026 224.046 473.522 224.334 473.27C222.3 472.838 220.77 471.848 219.888 470.408H223.92ZM226.692 468.14C226.494 469.724 226.116 471.326 225.522 472.424C225.81 472.514 226.35 472.766 226.566 472.928C227.16 471.776 227.592 470.048 227.844 468.356L226.692 468.14ZM231.516 466.826C231.678 467.204 231.786 467.546 231.858 467.852L232.92 467.348C232.668 466.376 231.876 464.846 231.138 463.694L230.148 464.126C230.454 464.612 230.76 465.17 231.03 465.728C230.04 465.764 229.05 465.818 228.15 465.854C229.392 464.306 230.832 462.182 231.876 460.49L230.724 459.986C230.22 460.958 229.536 462.128 228.798 463.262C228.51 462.884 228.132 462.452 227.7 462.02C228.384 461.048 229.14 459.608 229.752 458.402L228.564 457.952C228.186 458.942 227.556 460.292 226.962 461.3C226.782 461.138 226.602 460.976 226.422 460.832L225.738 461.714C226.584 462.47 227.538 463.478 228.096 464.288C227.7 464.882 227.286 465.422 226.89 465.89C226.476 465.908 226.062 465.926 225.702 465.926L225.81 467.132L228.744 466.988V474.404H229.95V466.916L231.516 466.826ZM230.598 468.392C231.084 469.508 231.588 470.948 231.75 471.884L232.812 471.524C232.65 470.588 232.128 469.166 231.606 468.068L230.598 468.392ZM235.062 469.202H239.634V472.64H235.062V469.202ZM239.634 460.166V463.478H235.062V460.166H239.634ZM239.634 467.996H235.062V464.684H239.634V467.996ZM240.948 472.64V458.96H233.766V472.64H231.858V473.864H242.334V472.64H240.948Z" fill="black"/>
<rect x="18.5" y="446.5" width="340" height="254" rx="23.5" stroke="#FEA735" stroke-width="3"/>
<g clip-path="url(#clip2_129_2089)">
<rect x="33" y="508" width="311" height="43" rx="21.5" fill="#FEA735"/>
<rect x="33" y="567" width="311" height="43" rx="21.5" fill="#FFCD6E"/>
<rect x="33" y="626" width="311" height="43" rx="21.5" fill="#FFCD6E"/>
<rect x="33" y="685" width="311" height="43" rx="21.5" fill="#FFCD6E"/>
<path d="M154.024 528.322C157.138 528.232 161.908 528.034 166.444 527.782C166.912 528.304 167.326 528.79 167.614 529.222L168.766 528.448C167.794 527.098 165.706 525.172 163.942 523.84L162.862 524.506C163.654 525.118 164.5 525.856 165.274 526.594C162.826 526.684 160.342 526.774 158.164 526.846C158.794 525.802 159.46 524.506 160.036 523.372H168.91V522.094H161.764V519.934H160.432V522.094H153.394V523.372H158.452C158.002 524.506 157.336 525.874 156.742 526.9C155.698 526.936 154.762 526.954 153.952 526.972L154.024 528.322ZM158.11 528.808C157.858 532.138 157.156 534.19 152.98 535.216C153.268 535.468 153.628 536.008 153.754 536.35C158.29 535.108 159.208 532.678 159.514 528.808H158.11ZM164.914 534.982C164.212 534.982 164.086 534.874 164.086 534.334V528.7H162.736V534.334C162.736 535.81 163.168 536.242 164.752 536.242H167.308C168.838 536.242 169.198 535.468 169.36 532.444C168.982 532.336 168.424 532.12 168.118 531.868C168.028 534.568 167.92 534.982 167.218 534.982H164.914ZM174.58 526.576C173.95 526.018 172.672 525.334 171.628 524.92L170.872 525.892C171.934 526.36 173.212 527.116 173.824 527.674L174.58 526.576ZM172.456 536.152C173.23 534.496 174.13 532.3 174.796 530.428L173.716 529.726C172.996 531.742 171.97 534.046 171.25 535.432L172.456 536.152ZM171.646 521.086C172.654 521.59 173.896 522.418 174.472 523.012L175.264 521.95C174.652 521.356 173.428 520.6 172.42 520.132L171.646 521.086ZM179.224 522.832H183.094V524.344H179.224V522.832ZM184.408 525.496V522.832H187.288V521.644H184.408V519.934H183.094V521.644H179.224V519.934H177.946V521.644H175.264V522.832H177.946V525.496H180.502V526.774H175.678V536.332H176.848V527.926H180.502V533.254C179.746 532.462 179.314 530.896 179.242 528.952H177.532V529.87H178.558C178.576 530.104 178.594 530.338 178.63 530.554H178.324C178.198 531.652 177.766 532.858 176.902 533.542C177.082 533.65 177.37 533.92 177.496 534.1C178.18 533.524 178.612 532.714 178.882 531.814C179.116 532.732 179.494 533.47 179.98 533.974C180.088 533.794 180.322 533.578 180.502 533.434V536.17H181.708V527.926H185.542V533.254C184.678 532.498 184.156 530.95 184.066 528.952H182.356V529.87H183.382C183.4 530.104 183.436 530.32 183.454 530.536H183.166C183.04 531.598 182.608 532.75 181.726 533.398C181.924 533.524 182.212 533.794 182.32 533.974C183.004 533.416 183.454 532.624 183.724 531.76C183.994 532.696 184.408 533.416 184.93 533.92C185.056 533.722 185.344 533.488 185.542 533.344V535.054C185.542 535.27 185.47 535.306 185.254 535.306C185.038 535.324 184.336 535.324 183.58 535.306C183.724 535.612 183.868 536.026 183.922 536.332C185.02 536.332 185.74 536.314 186.172 536.152C186.604 535.972 186.73 535.666 186.73 535.054V526.774H181.708V525.496H184.408ZM194.326 524.866C194.092 527.224 193.624 529.204 192.94 530.824C192.256 530.338 191.536 529.888 190.852 529.492C191.212 528.07 191.59 526.468 191.95 524.866H194.326ZM194.884 523.588L194.65 523.642H192.22C192.49 522.4 192.742 521.194 192.958 520.096L191.68 519.952C191.482 521.068 191.23 522.346 190.942 523.642H188.98V524.866H190.69C190.186 527.116 189.646 529.33 189.214 530.878L190.33 531.454L190.528 530.698C191.158 531.094 191.788 531.526 192.382 531.976C191.536 533.524 190.438 534.64 189.124 535.324C189.412 535.594 189.772 536.08 189.952 536.404C191.356 535.558 192.508 534.388 193.408 532.786C194.164 533.416 194.812 534.046 195.244 534.586L196.054 533.524C195.568 532.93 194.848 532.264 194.002 531.616C194.884 529.6 195.442 527.026 195.676 523.768L194.884 523.588ZM205.414 527.152H201.13V525.55C202.498 524.488 204.028 522.868 205.036 521.428L204.154 520.78L203.884 520.87H196.18V522.094H202.912C202.192 523.012 201.238 524.038 200.338 524.758H199.798V527.152H195.586V528.394H199.798V534.676C199.798 534.946 199.708 535.036 199.402 535.054C199.096 535.072 198.088 535.072 196.954 535.036C197.152 535.378 197.386 535.972 197.458 536.332C198.88 536.332 199.816 536.296 200.374 536.098C200.95 535.882 201.13 535.486 201.13 534.676V528.394H205.414V527.152ZM222.01 525.892C220.372 525.118 217.564 523.984 215.278 523.21C215.332 523.084 215.386 522.94 215.44 522.796H222.28V521.608H215.764C215.872 521.104 215.962 520.528 216.016 519.934H214.648C214.594 520.546 214.504 521.104 214.396 521.608H208.042V522.796H214C213.226 524.452 211.552 525.37 207.754 525.838C207.97 526.09 208.258 526.594 208.366 526.882C211.732 526.432 213.604 525.586 214.684 524.2C216.934 524.992 219.562 526.108 221.038 526.846L222.01 525.892ZM214.846 530.77V533.218H210.274V530.77H214.846ZM216.142 534.316V529.672H208.996V535.486H210.274V534.316H216.142ZM223.162 527.008H207.142V528.232H219.328V534.73C219.328 535.036 219.238 535.108 218.878 535.144C218.518 535.144 217.276 535.162 215.908 535.108C216.106 535.486 216.34 536.008 216.412 536.386C218.068 536.386 219.184 536.368 219.832 536.17C220.48 535.954 220.678 535.576 220.678 534.748V528.232H223.162V527.008Z" fill="black"/>
<path d="M157.93 581.022C157.174 580.518 155.662 579.69 154.564 579.168L153.826 580.122C154.924 580.716 156.418 581.58 157.156 582.102L157.93 581.022ZM157.012 585.882C156.22 585.378 154.726 584.586 153.682 584.064L152.944 585.036C154.042 585.612 155.518 586.476 156.256 586.98L157.012 585.882ZM154.492 595.134C155.554 593.478 156.814 591.246 157.75 589.356L156.778 588.474C155.734 590.508 154.348 592.884 153.376 594.234L154.492 595.134ZM166.84 593.37H160.45V589.662H166.84V593.37ZM169.288 585.468V584.172H164.356V581.058C165.904 580.788 167.344 580.446 168.514 580.05L167.47 579.006C165.472 579.726 161.854 580.284 158.758 580.608C158.884 580.914 159.064 581.418 159.136 581.742C160.414 581.616 161.764 581.454 163.078 581.256V584.172H157.894V585.468H163.078V588.42H159.208V595.368H160.45V594.612H166.84V595.278H168.118V588.42H164.356V585.468H169.288ZM178.918 582.858C178.918 582.588 178.918 582.336 178.918 582.084V578.97H177.532V582.084C177.532 582.336 177.532 582.588 177.532 582.858H171.7V584.19H177.46C177.19 587.556 176.038 591.498 171.16 594.396C171.484 594.612 171.97 595.134 172.186 595.458C177.406 592.272 178.594 587.916 178.846 584.19H184.984C184.642 590.526 184.246 593.064 183.598 593.676C183.382 593.892 183.148 593.946 182.77 593.946C182.32 593.946 181.168 593.928 179.944 593.82C180.214 594.216 180.376 594.792 180.394 595.188C181.492 595.26 182.644 595.296 183.274 595.242C183.958 595.17 184.39 595.026 184.804 594.522C185.596 593.622 185.974 590.94 186.37 583.56C186.388 583.362 186.406 582.858 186.406 582.858H178.918ZM190.024 587.322C193.138 587.232 197.908 587.034 202.444 586.782C202.912 587.304 203.326 587.79 203.614 588.222L204.766 587.448C203.794 586.098 201.706 584.172 199.942 582.84L198.862 583.506C199.654 584.118 200.5 584.856 201.274 585.594C198.826 585.684 196.342 585.774 194.164 585.846C194.794 584.802 195.46 583.506 196.036 582.372H204.91V581.094H197.764V578.934H196.432V581.094H189.394V582.372H194.452C194.002 583.506 193.336 584.874 192.742 585.9C191.698 585.936 190.762 585.954 189.952 585.972L190.024 587.322ZM194.11 587.808C193.858 591.138 193.156 593.19 188.98 594.216C189.268 594.468 189.628 595.008 189.754 595.35C194.29 594.108 195.208 591.678 195.514 587.808H194.11ZM200.914 593.982C200.212 593.982 200.086 593.874 200.086 593.334V587.7H198.736V593.334C198.736 594.81 199.168 595.242 200.752 595.242H203.308C204.838 595.242 205.198 594.468 205.36 591.444C204.982 591.336 204.424 591.12 204.118 590.868C204.028 593.568 203.92 593.982 203.218 593.982H200.914ZM210.688 585.864C209.986 585.36 208.6 584.568 207.628 584.046L206.944 585.036C207.988 585.612 209.356 586.44 210.022 586.98L210.688 585.864ZM208.474 595.152C209.446 593.478 210.598 591.246 211.48 589.374L210.616 588.492C209.644 590.508 208.348 592.884 207.448 594.252L208.474 595.152ZM207.736 580.176C208.762 580.752 210.184 581.616 210.868 582.174L211.57 581.094C210.85 580.554 209.446 579.744 208.402 579.204L207.736 580.176ZM223.324 582.894V581.598H218.104V578.934H216.754V581.598H211.786V582.894H216.754V585.09H212.56V593.064H213.874V586.386H216.754V595.404H218.104V586.386H221.128V591.444C221.128 591.642 221.074 591.696 220.858 591.696C220.624 591.714 219.94 591.714 219.166 591.696C219.346 592.074 219.508 592.596 219.562 592.992C220.66 592.992 221.398 592.974 221.866 592.74C222.334 592.524 222.442 592.146 222.442 591.462V585.09H218.104V582.894H223.324Z" fill="black"/>
<path d="M171.952 646.34C172.402 645.062 172.744 642.974 172.834 641.534L171.808 641.39C171.682 642.848 171.358 644.792 170.89 645.98L171.952 646.34ZM173.518 654.368H174.814V637.934H173.518V654.368ZM174.994 641.228C175.516 642.308 176.056 643.73 176.272 644.594L177.298 644.108C177.082 643.262 176.506 641.876 175.966 640.796L174.994 641.228ZM179.17 652.136V647.798H185.452V652.136H179.17ZM185.452 642.452V646.538H179.17V642.452H185.452ZM182.212 641.156C182.518 640.292 182.842 639.23 183.13 638.258L181.6 638.06C181.456 638.96 181.15 640.202 180.862 641.156H177.874V654.368H179.17V653.45H185.452V654.224H186.784V641.156H182.212ZM197.854 652.514V647.942H203.632V646.646H197.854V642.722H204.298V641.408H197.854V637.952H196.486V641.408H192.832C193.228 640.49 193.552 639.518 193.84 638.528L192.49 638.24C191.788 640.796 190.636 643.28 189.16 644.864C189.52 645.044 190.114 645.44 190.384 645.656C191.05 644.846 191.68 643.856 192.256 642.722H196.486V646.646H191.14V647.942H196.486V652.514H189.196V653.81H205.144V652.514H197.854Z" fill="black"/>
<path d="M185.938 698.554C185.884 700.048 185.812 700.624 185.686 700.822C185.596 700.912 185.488 700.93 185.308 700.93C185.146 700.93 184.786 700.93 184.336 700.876C184.498 701.182 184.606 701.668 184.624 701.992C185.11 702.01 185.614 701.992 185.884 701.974C186.244 701.938 186.496 701.83 186.694 701.578C186.982 701.218 187.072 700.3 187.144 697.996C187.162 697.834 187.162 697.51 187.162 697.51H181.438V698.554H183.022C182.806 699.85 182.266 700.912 180.952 701.542C181.204 701.722 181.528 702.118 181.672 702.388C183.274 701.578 183.922 700.246 184.192 698.554H185.938ZM182.896 707.824H185.758V709.066H182.896V707.824ZM182.896 705.718H185.758V706.942H182.896V705.718ZM182.896 703.612H185.758V704.818H182.896V703.612ZM181.798 710.038H186.892V702.64H181.798V710.038ZM171.502 700.066C171.502 701.632 171.25 703.576 170.692 704.674L171.538 705.052C172.15 703.81 172.402 701.776 172.384 700.192L171.502 700.066ZM172.942 713.35H174.166V696.934H172.942V713.35ZM176.704 702.91H177.964V705.79H176.704V702.91ZM180.106 705.79H178.882V702.91H180.106V705.79ZM181.51 709.606C181.15 709.192 179.62 707.608 179.008 707.05V706.852H181.096V701.848H179.008V700.012H181.222V698.914H179.008V696.952H177.82V698.914H175.624V700.012H177.82V701.848H175.858C175.768 701.2 175.498 700.264 175.192 699.49L174.364 699.76C174.688 700.588 174.958 701.704 174.994 702.388L175.75 702.082V706.852H177.388C176.794 708.382 175.858 710.002 174.922 710.902C175.138 711.226 175.408 711.73 175.534 712.09C176.38 711.19 177.208 709.678 177.82 708.166V713.368H179.008V708.328C179.674 709.084 180.52 710.056 180.862 710.56L181.51 709.606ZM182.608 710.326C182.104 711.172 181.24 712.018 180.34 712.594C180.61 712.792 181.06 713.206 181.276 713.44C182.194 712.756 183.166 711.694 183.778 710.668L182.608 710.326ZM184.768 710.74C185.452 711.55 186.244 712.666 186.604 713.368L187.666 712.81C187.306 712.126 186.496 711.046 185.776 710.272L184.768 710.74ZM192.238 700.246H194.56V702.37H192.238V700.246ZM197.656 702.37H195.802V700.246H197.62V699.112H195.802V697.114H194.56V699.112H192.238V697.114H191.014V699.112H189.214V700.246H191.014V702.37H188.926V703.522H197.656V702.37ZM191.446 709.318V708.058H195.37V709.318H191.446ZM195.37 705.772V707.032H191.446V705.772H195.37ZM196.612 704.71H190.204V713.386H191.446V710.362H195.37V711.964C195.37 712.162 195.298 712.234 195.082 712.252C194.884 712.252 194.2 712.27 193.408 712.234C193.57 712.558 193.75 713.026 193.786 713.35C194.884 713.35 195.604 713.35 196.036 713.152C196.486 712.954 196.612 712.63 196.612 711.982V704.71ZM199.78 701.524H202.858C202.552 703.756 202.084 705.682 201.364 707.32C200.608 705.646 200.104 703.702 199.744 701.65L199.78 701.524ZM205.36 701.524V700.264H200.122C200.374 699.256 200.572 698.194 200.752 697.132L199.456 696.934C199.006 699.958 198.232 702.928 196.954 704.836C197.224 705.088 197.692 705.646 197.872 705.934C198.304 705.268 198.7 704.512 199.024 703.702C199.438 705.52 199.942 707.212 200.608 708.688C199.69 710.2 198.412 711.388 196.684 712.27C196.954 712.522 197.35 713.116 197.476 713.404C199.078 712.486 200.338 711.37 201.31 709.984C202.156 711.424 203.218 712.576 204.55 713.386C204.766 713.026 205.18 712.504 205.504 712.252C204.082 711.478 202.948 710.272 202.066 708.742C203.11 706.798 203.758 704.404 204.154 701.524H205.36Z" fill="black"/>
<path d="M324.348 586.613H328.801V589.215H324.348V594.289H321.582V589.215H317.105V586.613H321.582V581.867H324.348V586.613Z" fill="#FCF5EF"/>
<path d="M329.023 529.723H317.094V527.426H329.023V529.723Z" fill="#FCF5EF"/>
<path d="M324.348 645.613H328.801V648.215H324.348V653.289H321.582V648.215H317.105V645.613H321.582V640.867H324.348V645.613Z" fill="#FCF5EF"/>
</g>
<rect x="17" y="372" width="343" height="43" rx="21.5" fill="#FEA735"/>
<path d="M121.32 399.136V396.472H130.914V399.136H121.32ZM130.914 392.602V395.212H121.32V392.602H130.914ZM130.914 388.66V391.342H121.32V388.66H130.914ZM125.838 387.382C126.144 386.698 126.468 385.888 126.738 385.114L125.208 384.916C125.064 385.618 124.776 386.59 124.506 387.382H119.988V401.404H121.32V400.396H130.914V401.314H132.3V387.382H125.838ZM151.614 386.032H142.83V387.292H151.614V386.032ZM139.824 384.934C138.924 386.212 137.196 387.832 135.702 388.84C135.936 389.092 136.296 389.614 136.494 389.902C138.096 388.768 139.932 387.022 141.102 385.438L139.824 384.934ZM140.562 388.768C139.32 390.802 137.376 392.872 135.522 394.186C135.792 394.456 136.26 395.032 136.458 395.302C137.124 394.78 137.808 394.132 138.492 393.43V401.422H139.824V391.954C140.562 391.072 141.246 390.154 141.804 389.236L140.562 388.768ZM152.136 390.946H142.056V392.224H148.068V399.64C148.068 399.946 147.96 400.018 147.618 400.036C147.276 400.054 146.088 400.054 144.81 400.018C145.008 400.396 145.188 400.954 145.242 401.314C147.006 401.314 148.014 401.314 148.626 401.116C149.22 400.9 149.418 400.486 149.418 399.658V392.224H152.136V390.946ZM154.656 395.14C154.458 396.706 154.116 398.326 153.558 399.424C153.81 399.514 154.332 399.748 154.53 399.892C155.106 398.74 155.502 397.03 155.754 395.338L154.656 395.14ZM158.94 393.7C159.084 394.132 159.192 394.528 159.246 394.852L160.272 394.42C160.056 393.412 159.426 391.846 158.742 390.658L157.806 391.018C158.058 391.504 158.31 392.044 158.526 392.584L156.114 392.71C157.266 391.198 158.598 389.146 159.57 387.472L158.472 386.986C158.004 387.94 157.356 389.11 156.654 390.226C156.402 389.884 156.078 389.488 155.718 389.092C156.348 388.102 157.122 386.626 157.734 385.384L156.582 384.952C156.222 385.942 155.574 387.328 154.998 388.354C154.818 388.174 154.62 387.976 154.44 387.814L153.72 388.642C154.548 389.416 155.448 390.46 155.97 391.27C155.61 391.828 155.25 392.332 154.908 392.782C154.44 392.8 153.99 392.818 153.594 392.836L153.72 394.042C154.53 393.988 155.448 393.934 156.438 393.862V401.368H157.608V393.79L158.94 393.7ZM167.274 396.85V394.78H168.696V396.85H167.274ZM164.97 396.85V394.78H166.356V396.85H164.97ZM162.72 396.85V394.78H164.07V396.85H162.72ZM168.174 389.488V391.414H161.964V389.488H168.174ZM169.83 393.736H161.928C161.946 393.304 161.964 392.908 161.964 392.512H169.47V388.372H160.758V392.314C160.758 394.042 160.668 396.256 159.948 398.236C159.84 397.354 159.498 396.076 159.066 395.086L158.13 395.374C158.544 396.4 158.904 397.75 158.958 398.632L159.912 398.362C159.642 399.064 159.3 399.748 158.85 400.36C159.12 400.504 159.624 400.882 159.822 401.116C160.884 399.658 161.442 397.804 161.712 395.986V401.368H162.72V397.876H164.07V401.188H164.97V397.876H166.356V401.188H167.274V397.876H168.696V400.09C168.696 400.252 168.66 400.288 168.552 400.288C168.408 400.288 168.03 400.288 167.598 400.27C167.742 400.576 167.922 401.044 167.958 401.368C168.624 401.368 169.092 401.332 169.434 401.17C169.758 400.954 169.83 400.63 169.83 400.108V393.736ZM160.074 386.032V387.202H169.902V386.032H160.074ZM176.958 397.66C177.318 398.668 177.588 400 177.57 400.81L178.668 400.648C178.668 399.838 178.398 398.542 178.002 397.552L176.958 397.66ZM179.496 397.588C180.018 398.452 180.486 399.586 180.63 400.342L181.656 400.036C181.512 399.28 181.008 398.146 180.432 397.3L179.496 397.588ZM184.428 399.01C184.14 398.452 183.474 397.624 182.862 397.048L181.962 397.48C182.574 398.074 183.222 398.92 183.492 399.496L184.428 399.01ZM177.21 395.554C177.552 395.176 177.876 394.798 178.146 394.384H185.49V389.038H180.522V390.028H184.266V391.234H180.792V392.188H184.266V393.412H175.806V392.188H179.244V391.234H175.806V390.082C177.066 389.812 178.488 389.452 179.55 389.002L178.704 388.138C177.912 388.516 176.598 388.912 175.41 389.218L174.6 389.038V394.384H176.67C175.554 395.806 173.7 396.94 171.846 397.66C172.098 397.912 172.494 398.47 172.638 398.722C173.358 398.398 174.096 398.002 174.78 397.552C174.51 398.686 173.988 399.856 173.16 400.54L174.168 401.152C175.14 400.342 175.608 398.974 175.914 397.678L174.996 397.408C175.356 397.174 175.698 396.922 176.022 396.652H185.706C185.562 398.866 185.382 399.784 185.112 400.072C184.968 400.216 184.824 400.234 184.518 400.216C184.194 400.234 183.384 400.216 182.52 400.144C182.736 400.45 182.862 400.954 182.898 401.296C183.78 401.35 184.644 401.368 185.076 401.314C185.58 401.296 185.904 401.188 186.21 400.864C186.642 400.396 186.858 399.172 187.056 396.094C187.074 395.914 187.092 395.554 187.092 395.554H177.21ZM180.63 386.392V384.952H179.316V386.392H172.422V389.56H173.646V387.562H186.336V389.56H187.596V386.392H180.63ZM203.958 390.154H198.558V386.86H203.958V390.154ZM205.272 385.69H197.334V391.306H205.272V385.69ZM196.614 394.798C196.254 394.384 194.724 392.8 194.166 392.332V391.234H196.416V389.974H194.166V386.932C195.012 386.734 195.804 386.482 196.452 386.212L195.516 385.204C194.202 385.798 191.844 386.32 189.828 386.644C189.99 386.95 190.17 387.382 190.242 387.688C191.07 387.562 191.988 387.418 192.87 387.238V389.974H189.936V391.234H192.69C191.97 393.286 190.728 395.608 189.594 396.868C189.81 397.192 190.134 397.714 190.26 398.092C191.178 396.994 192.132 395.194 192.87 393.376V401.332H194.166V393.628C194.778 394.366 195.516 395.356 195.804 395.86L196.614 394.798ZM201.906 399.694V397.372H205.488V396.202H201.906V394.06H205.884V392.872H196.668V394.06H200.574V396.202H197.082V397.372H200.574V399.694H195.858V400.9H206.28V399.694H201.906ZM223.236 387.22C222.696 386.608 221.562 385.69 220.644 385.078L219.744 385.816C220.662 386.464 221.778 387.436 222.3 388.066L223.236 387.22ZM213.21 393.556H216.576V392.26H208.692V393.556H211.896V398.776C210.456 399.064 209.142 399.334 208.134 399.532L208.548 400.846C210.834 400.342 214.128 399.586 217.17 398.848L217.062 397.678C215.766 397.966 214.47 398.218 213.21 398.488V393.556ZM223.974 389.578V388.282H218.646C218.592 387.22 218.574 386.14 218.574 385.024H217.17C217.188 386.122 217.206 387.22 217.26 388.282H208.062V389.578H217.35C217.818 396.238 219.312 401.404 222.246 401.404C223.614 401.404 224.118 400.486 224.352 397.372C223.974 397.228 223.47 396.94 223.164 396.634C223.056 399.028 222.84 400.018 222.354 400.018C220.572 400.018 219.15 395.644 218.718 389.578H223.974ZM234.126 388.912H235.404V387.562H238.14V388.93H239.436V387.562H241.938V386.428H239.436V384.952H238.14V386.428H235.404V384.952H234.126V386.428H231.516V387.562H234.126V388.912ZM231.606 393.862C231.282 393.304 229.932 391.036 229.464 390.352V389.65H231.318V388.39H229.464V384.934H228.186V388.39H225.972V389.65H228.186C227.7 392.08 226.674 394.942 225.63 396.436C225.864 396.76 226.188 397.336 226.332 397.732C226.998 396.67 227.664 395.032 228.186 393.286V401.368H229.464V392.152C229.95 393.088 230.508 394.24 230.76 394.852L231.606 393.862ZM233.496 392.494H239.724V393.772H233.496V392.494ZM233.496 390.262H239.724V391.54H233.496V390.262ZM241.92 397.408V396.274H236.97C237.06 395.806 237.15 395.302 237.204 394.78H241.002V389.254H232.254V394.78H235.89C235.818 395.302 235.746 395.824 235.638 396.274H231.12V397.408H235.242C234.558 398.776 233.28 399.73 230.652 400.324C230.886 400.576 231.228 401.08 231.336 401.368C234.468 400.612 235.908 399.352 236.628 397.444C237.528 399.406 239.184 400.738 241.488 401.368C241.668 401.026 242.046 400.522 242.334 400.27C240.3 399.838 238.77 398.848 237.888 397.408H241.92ZM244.692 395.14C244.494 396.724 244.116 398.326 243.522 399.424C243.81 399.514 244.35 399.766 244.566 399.928C245.16 398.776 245.592 397.048 245.844 395.356L244.692 395.14ZM249.516 393.826C249.678 394.204 249.786 394.546 249.858 394.852L250.92 394.348C250.668 393.376 249.876 391.846 249.138 390.694L248.148 391.126C248.454 391.612 248.76 392.17 249.03 392.728C248.04 392.764 247.05 392.818 246.15 392.854C247.392 391.306 248.832 389.182 249.876 387.49L248.724 386.986C248.22 387.958 247.536 389.128 246.798 390.262C246.51 389.884 246.132 389.452 245.7 389.02C246.384 388.048 247.14 386.608 247.752 385.402L246.564 384.952C246.186 385.942 245.556 387.292 244.962 388.3C244.782 388.138 244.602 387.976 244.422 387.832L243.738 388.714C244.584 389.47 245.538 390.478 246.096 391.288C245.7 391.882 245.286 392.422 244.89 392.89C244.476 392.908 244.062 392.926 243.702 392.926L243.81 394.132L246.744 393.988V401.404H247.95V393.916L249.516 393.826ZM248.598 395.392C249.084 396.508 249.588 397.948 249.75 398.884L250.812 398.524C250.65 397.588 250.128 396.166 249.606 395.068L248.598 395.392ZM253.062 396.202H257.634V399.64H253.062V396.202ZM257.634 387.166V390.478H253.062V387.166H257.634ZM257.634 394.996H253.062V391.684H257.634V394.996ZM258.948 399.64V385.96H251.766V399.64H249.858V400.864H260.334V399.64H258.948Z" fill="black"/>
<circle cx="188" cy="196" r="80" fill="#FEA735"/>
<path d="M158.458 255.094V186.092C158.458 186.092 158.458 159.316 188.905 158.911C188.905 158.911 217.827 159.316 218.828 185.592L219.234 255.094H158.458Z" fill="#906526" stroke="black" stroke-width="2" stroke-miterlimit="10"/>
<path d="M173.527 190.026C176.107 190.026 178.2 187.934 178.2 185.353C178.2 182.772 176.107 180.68 173.527 180.68C170.946 180.68 168.853 182.772 168.853 185.353C168.853 187.934 170.946 190.026 173.527 190.026Z" fill="black" stroke="black" stroke-miterlimit="10"/>
<path d="M204.165 190.026C206.746 190.026 208.838 187.934 208.838 185.353C208.838 182.772 206.746 180.68 204.165 180.68C201.584 180.68 199.491 182.772 199.491 185.353C199.491 187.934 201.584 190.026 204.165 190.026Z" fill="black" stroke="black" stroke-miterlimit="10"/>
<path d="M216.349 173.408C216.349 173.408 226.792 171.167 232.991 181.92C232.991 181.92 241.17 198.109 230.559 204.332C230.559 204.332 222.739 207.79 219.544 199.135C219.52 199.135 220.283 184.233 216.349 173.408Z" fill="#6A4B2E" stroke="black" stroke-width="2" stroke-miterlimit="10"/>
<path d="M160.651 173.408C160.651 173.408 150.208 171.167 144.009 181.92C144.009 181.92 135.831 198.109 146.441 204.332C146.441 204.332 154.261 207.79 157.456 199.135C157.48 199.135 156.717 184.233 160.651 173.408Z" fill="#6A4B2E" stroke="black" stroke-width="2" stroke-miterlimit="10"/>
<path d="M185.996 191.576H191.671C195.176 191.576 197.083 194.628 194.866 196.631L192.029 199.206C190.384 200.708 187.308 200.708 185.663 199.206L182.825 196.631C180.584 194.604 182.515 191.576 185.996 191.576Z" fill="black" stroke="black" stroke-miterlimit="10"/>
<path d="M178.677 209.673L188.738 201.161L198.991 210.746" stroke="black" stroke-width="2" stroke-miterlimit="10"/>
<path d="M204.165 162.44C204.165 162.44 214.394 155.144 202.806 149.97C202.806 149.97 209.506 138.334 195.82 139.479C195.82 139.479 188.667 131.253 184.232 140.099C184.232 140.099 173.884 136.522 175.553 144.748C175.553 144.748 167.876 148.468 171.977 153.189C171.977 153.189 166.97 159.436 173.503 161.558C173.526 161.51 188.047 155.12 204.165 162.44Z" fill="#6A4B2E" stroke="black" stroke-width="2" stroke-miterlimit="10"/>
<circle cy="196" r="80" fill="#FFEBCC"/>
<path d="M-30.469 252.324V183.22C-30.469 183.22 -30.469 156.405 0.023798 155.999C0.023798 155.999 28.9884 156.405 29.9913 182.719L30.3972 252.324H-30.469Z" fill="white" stroke="black" stroke-width="2" stroke-miterlimit="10"/>
<path d="M14.8525 188.808C17.4373 188.808 19.5327 186.712 19.5327 184.127C19.5327 181.543 17.4373 179.447 14.8525 179.447C12.2678 179.447 10.1724 181.543 10.1724 184.127C10.1724 186.712 12.2678 188.808 14.8525 188.808Z" fill="black" stroke="black" stroke-miterlimit="10"/>
<path d="M30.4211 252.229C30.4211 252.229 47.1361 254.33 48.712 239.263C48.712 239.263 52.2461 224.434 34.5521 214.238C32.7374 213.188 30.4211 214.501 30.4211 216.554V252.229Z" fill="#D3AF7C" stroke="black" stroke-width="2" stroke-miterlimit="10"/>
<path d="M-6.0413 155.999C-6.0413 155.999 -6.63827 143.462 -5.48363e-05 140C-5.48363e-05 140 7.06797 144.465 5.94569 155.999C5.94569 155.999 1.33714 154.112 -6.0413 155.999Z" fill="#D3AF7C" stroke="black" stroke-width="2" stroke-miterlimit="10"/>
<path d="M20.8459 206.072C24.5912 206.072 27.6274 203.035 27.6274 199.29C27.6274 195.545 24.5912 192.509 20.8459 192.509C17.1006 192.509 14.0645 195.545 14.0645 199.29C14.0645 203.035 17.1006 206.072 20.8459 206.072Z" fill="#D7B995"/>
<path d="M-14.5896 197.977L-5.06206 192.055C-2.55482 190.479 1.45676 190.336 4.15502 191.697L14.1362 196.735C17.7896 198.574 17.2643 202.156 13.1333 203.66L3.51031 207.194C1.60003 207.886 -0.716184 207.982 -2.72197 207.457L-12.6077 204.806C-17.0013 203.636 -18.0281 200.102 -14.5896 197.977Z" fill="#BB8682" stroke="black" stroke-miterlimit="10"/>
<path d="M-17.7178 201.129C-17.7178 201.129 -0.382013 204.448 17.694 199.529" stroke="#040000" stroke-width="0.5" stroke-miterlimit="10"/>
<circle cx="376" cy="196" r="80" fill="#FFEBCC"/>
<path d="M356.175 253.799V184.679C356.175 184.679 356.175 157.857 386.674 157.451C386.674 157.451 415.645 157.857 416.649 184.177L417.055 253.799" fill="white"/>
<path d="M356.175 253.799V184.679C356.175 184.679 356.175 157.857 386.674 157.451C386.674 157.451 415.645 157.857 416.649 184.177L417.055 253.799H356.175Z" stroke="black" stroke-width="2" stroke-miterlimit="10"/>
<path d="M370.815 190.292C373.401 190.292 375.497 188.196 375.497 185.61C375.497 183.025 373.401 180.929 370.815 180.929C368.23 180.929 366.134 183.025 366.134 185.61C366.134 188.196 368.23 190.292 370.815 190.292Z" fill="black" stroke="black" stroke-miterlimit="10"/>
<path d="M356.175 253.799V186.805C356.175 186.805 352.305 165.452 379.796 154.49C379.796 154.49 343.946 149.378 345.761 177.705C345.761 177.705 322.427 183.795 338.906 201.804C338.906 201.804 319.537 212.169 337.927 225.902C337.927 225.902 323.764 243.099 348.221 252.748C348.221 252.748 351.684 254.205 356.175 253.799Z" fill="#DBA8CC" stroke="#040000" stroke-width="2" stroke-miterlimit="10"/>
<path d="M405.065 230.822C420.47 226.834 413.83 213.483 413.83 213.483C406.187 194.089 387.08 195.331 387.08 195.331C368.308 195.307 360.068 212.48 360.068 212.48C352.711 229.939 370.409 231.252 370.409 231.252C370.409 231.252 394.078 233.665 405.065 230.822Z" fill="white" stroke="black" stroke-width="2" stroke-miterlimit="10"/>
<path d="M364.486 163.733C364.486 163.733 361.739 159.553 356.963 158.478C356.963 158.478 350.108 156.568 350.227 161.941C350.227 161.941 351.398 170.181 357.631 173.071C357.631 173.071 360.521 165.763 364.486 163.733Z" fill="white" stroke="black" stroke-width="2" stroke-miterlimit="10"/>
<path opacity="0.35" d="M336.812 18.6693C336.812 17.4727 337.782 16.5026 338.979 16.5026H355.469C356.666 16.5026 357.636 17.4727 357.636 18.6693V24.6693C357.636 25.8659 356.666 26.836 355.469 26.836H338.979C337.782 26.836 336.812 25.8659 336.812 24.6693V18.6693Z" stroke="black"/>
<path opacity="0.4" d="M359.128 19.6693V23.6693C359.926 23.3305 360.445 22.5424 360.445 21.6693C360.445 20.7962 359.926 20.0081 359.128 19.6693Z" fill="black"/>
<path d="M338.296 19.336C338.296 18.5996 338.893 18.0026 339.629 18.0026H354.819C355.555 18.0026 356.152 18.5996 356.152 19.336V24.0026C356.152 24.739 355.555 25.336 354.819 25.336H339.629C338.893 25.336 338.296 24.739 338.296 24.0026V19.336Z" fill="black"/>
<path fill-rule="evenodd" clip-rule="evenodd" d="M323.744 18.2773C325.942 18.2774 328.056 19.1289 329.649 20.6557C329.769 20.7735 329.961 20.772 330.079 20.6523L331.226 19.4857C331.286 19.4249 331.319 19.3427 331.318 19.2571C331.318 19.1715 331.284 19.0897 331.223 19.0297C327.042 14.9901 320.445 14.9901 316.264 19.0297C316.203 19.0896 316.169 19.1715 316.168 19.257C316.168 19.3426 316.201 19.4249 316.261 19.4857L317.408 20.6523C317.526 20.7722 317.718 20.7737 317.838 20.6557C319.431 19.1288 321.545 18.2773 323.744 18.2773ZM323.744 22.073C324.951 22.0729 326.116 22.5255 327.011 23.3427C327.132 23.4587 327.323 23.4562 327.441 23.337L328.587 22.1704C328.647 22.1092 328.68 22.0261 328.68 21.9399C328.679 21.8536 328.644 21.7713 328.582 21.7114C325.856 19.155 321.634 19.155 318.908 21.7114C318.846 21.7713 318.811 21.8537 318.81 21.9399C318.809 22.0262 318.843 22.1092 318.903 22.1704L320.049 23.337C320.167 23.4562 320.357 23.4587 320.478 23.3427C321.373 22.526 322.537 22.0735 323.744 22.073ZM326.038 24.6268C326.04 24.7133 326.006 24.7967 325.945 24.8573L323.964 26.873C323.906 26.9323 323.826 26.9656 323.744 26.9656C323.661 26.9656 323.582 26.9323 323.524 26.873L321.542 24.8573C321.481 24.7967 321.447 24.7133 321.449 24.6268C321.451 24.5403 321.488 24.4583 321.552 24.4003C322.817 23.3215 324.67 23.3215 325.936 24.4003C325.999 24.4584 326.037 24.5403 326.038 24.6268Z" fill="black"/>
<path fill-rule="evenodd" clip-rule="evenodd" d="M312.189 16.336H311.197C310.65 16.336 310.205 16.7837 310.205 17.336V26.0027C310.205 26.555 310.65 27.0027 311.197 27.0027H312.189C312.737 27.0027 313.181 26.555 313.181 26.0027V17.336C313.181 16.7837 312.737 16.336 312.189 16.336ZM306.568 18.6693H307.56C308.108 18.6693 308.552 19.117 308.552 19.6693V26.0026C308.552 26.5549 308.108 27.0026 307.56 27.0026H306.568C306.02 27.0026 305.576 26.5549 305.576 26.0026V19.6693C305.576 19.117 306.02 18.6693 306.568 18.6693ZM302.931 21.0027H301.939C301.391 21.0027 300.947 21.4504 300.947 22.0027V26.0027C300.947 26.555 301.391 27.0027 301.939 27.0027H302.931C303.479 27.0027 303.923 26.555 303.923 26.0027V22.0027C303.923 21.4504 303.479 21.0027 302.931 21.0027ZM298.301 23.0027H297.309C296.762 23.0027 296.317 23.4504 296.317 24.0027V26.0027C296.317 26.5549 296.762 27.0027 297.309 27.0027H298.301C298.849 27.0027 299.293 26.5549 299.293 26.0027V24.0027C299.293 23.4504 298.849 23.0027 298.301 23.0027Z" fill="black"/>
<path d="M38.4455 22.8765C37.9133 23.355 37.3176 23.5942 36.6584 23.5942C35.6916 23.5942 34.925 23.2671 34.3586 22.6128C33.7922 21.9585 33.509 21.0845 33.509 19.9907C33.509 19.3071 33.6677 18.6724 33.9851 18.0864C34.3025 17.5005 34.7468 17.0366 35.3181 16.6948C35.8943 16.353 36.529 16.1821 37.2224 16.1821C37.9255 16.1821 38.5603 16.3604 39.1267 16.7168C39.698 17.0684 40.1423 17.5688 40.4597 18.2183C40.7771 18.8628 40.9406 19.6074 40.9504 20.4521V21.397C40.9504 22.5737 40.7185 23.5942 40.2546 24.4585C39.7956 25.3228 39.1389 25.9868 38.2844 26.4507C37.4299 26.9146 36.4338 27.1465 35.2961 27.1465H35.1423V25.1689L35.6111 25.1616C37.3103 25.0786 38.2551 24.3169 38.4455 22.8765ZM37.3249 21.8145C37.862 21.8145 38.2478 21.5825 38.4821 21.1187V20.0933C38.4821 19.4097 38.3674 18.9043 38.1379 18.5771C37.9084 18.25 37.5984 18.0864 37.2077 18.0864C36.8611 18.0864 36.5705 18.272 36.3361 18.6431C36.1018 19.0142 35.9846 19.4634 35.9846 19.9907C35.9846 20.5474 36.1042 20.9917 36.3435 21.3237C36.5827 21.6509 36.9099 21.8145 37.3249 21.8145ZM43.5435 24.605C43.9341 24.605 44.2588 24.7222 44.5176 24.9565C44.7764 25.186 44.9058 25.4814 44.9058 25.8428C44.9058 26.2041 44.7764 26.502 44.5176 26.7363C44.2588 26.9658 43.9341 27.0806 43.5435 27.0806C43.148 27.0806 42.8208 26.9634 42.562 26.729C42.3081 26.4946 42.1812 26.1992 42.1812 25.8428C42.1812 25.4863 42.3081 25.1909 42.562 24.9565C42.8208 24.7222 43.148 24.605 43.5435 24.605ZM43.5435 18.7603C43.9341 18.7603 44.2588 18.8774 44.5176 19.1118C44.7764 19.3413 44.9058 19.6367 44.9058 19.998C44.9058 20.3594 44.7764 20.6572 44.5176 20.8916C44.2588 21.1211 43.9341 21.2358 43.5435 21.2358C43.148 21.2358 42.8208 21.1187 42.562 20.8843C42.3081 20.6499 42.1812 20.3545 42.1812 19.998C42.1812 19.6416 42.3081 19.3462 42.562 19.1118C42.8208 18.8774 43.148 18.7603 43.5435 18.7603ZM51.6517 27H49.1761V19.1191L46.7444 19.8296V17.9546L51.4246 16.3359H51.6517V27ZM61.0856 22.8325H62.1695V24.7368H61.0856V27H58.6173V24.7368H54.4938L54.3473 23.228L58.6173 16.3579V16.3359H61.0856V22.8325ZM56.6984 22.8325H58.6173V19.5513L58.4635 19.8003L56.6984 22.8325Z" fill="black"/>
</g>
<defs>
<clipPath id="clip0_129_2089">
<rect width="375" height="812" rx="40" fill="white"/>
</clipPath>
<clipPath id="clip1_129_2089">
<rect width="44" height="44" fill="white" transform="translate(16 42)"/>
</clipPath>
<clipPath id="clip2_129_2089">
<rect x="17" y="488" width="343" height="211" rx="25" fill="white"/>
</clipPath>
</defs>
</svg>
