<svg width="375" height="812" viewBox="0 0 375 812" fill="none" xmlns="http://www.w3.org/2000/svg">
<rect width="375" height="812" rx="40" fill="#FCF5EF"/>
<rect x="121" y="799" width="134" height="5" rx="2.5" fill="black"/>
<rect x="205" y="405" width="154" height="105" rx="25" fill="#FEA735"/>
<rect x="205" y="230" width="154" height="105" rx="25" fill="#FEA735"/>
<rect x="16" y="405" width="159" height="105" rx="25" fill="#FEA735"/>
<rect x="16" y="230" width="159" height="105" rx="25" fill="#FEA735"/>
<path d="M271.152 309.056C270.672 309.992 270 310.952 269.256 311.888C268.56 310.952 267.696 310.016 266.592 309.104L265.344 310.088C266.544 311.096 267.432 312.152 268.128 313.232C267.144 314.288 266.064 315.272 264.984 316.064C265.368 316.352 265.944 316.88 266.208 317.24C267.144 316.52 268.08 315.68 268.944 314.792C269.4 315.8 269.664 316.856 269.832 317.96C268.752 320.168 266.808 322.52 265.08 323.744C265.512 324.08 266.016 324.656 266.304 325.112C267.6 324.056 268.968 322.4 270.072 320.672C270.096 321.056 270.096 321.44 270.096 321.8C270.096 324.992 269.856 327.8 269.232 328.64C269.04 328.904 268.8 329.024 268.416 329.072C267.84 329.144 266.88 329.144 265.68 329.072C265.992 329.576 266.184 330.224 266.184 330.824C267.264 330.872 268.296 330.872 269.16 330.704C269.736 330.608 270.216 330.32 270.552 329.888C271.56 328.544 271.824 325.352 271.824 321.824C271.824 318.92 271.584 316.088 270.192 313.448C271.176 312.296 272.064 311.096 272.76 309.896L271.152 309.056ZM279.96 318.584V323.432H276.264V318.584H279.96ZM281.568 324.992V317.024H274.632V326.744H276.264V324.992H281.568ZM276.72 312.464C277.152 311.456 277.536 310.4 277.848 309.344L276.144 308.936C275.232 312.128 273.696 315.32 271.848 317.36C272.256 317.624 272.952 318.128 273.264 318.44C274.248 317.264 275.184 315.776 276 314.12H284.472C284.184 324.2 283.8 327.872 283.128 328.688C282.864 329.024 282.6 329.096 282.216 329.072C281.688 329.072 280.464 329.072 279.144 328.976C279.456 329.456 279.624 330.224 279.672 330.752C280.896 330.824 282.168 330.848 282.912 330.776C283.704 330.68 284.208 330.464 284.712 329.768C285.6 328.616 285.888 324.8 286.224 313.424C286.224 313.16 286.248 312.464 286.248 312.464H276.72Z" fill="black"/>
<rect x="16" y="580" width="343" height="105" rx="25" fill="#FEA735"/>
<path d="M284.64 485.16H277.008V486.624H282.864V488.64H277.368V490.056H282.864V492.168H269.28V490.056H274.536V488.64H269.28V486.744C271.272 486.36 273.48 485.76 275.16 485.112L273.816 483.888C272.52 484.464 270.384 485.112 268.392 485.568L267.528 485.4V493.632H284.64V485.16ZM277.392 496.2C278.424 496.752 279.624 497.568 280.2 498.192L281.136 497.088C280.536 496.488 279.288 495.696 278.304 495.216L277.392 496.2ZM277.272 499.776C278.28 500.4 279.504 501.336 280.104 502.008L281.088 500.904C280.464 500.256 279.24 499.368 278.184 498.792L277.272 499.776ZM270.48 496.176C271.464 496.68 272.64 497.496 273.168 498.12L274.152 497.016C273.552 496.416 272.376 495.672 271.392 495.192L270.48 496.176ZM270.264 499.728C271.248 500.304 272.352 501.144 272.904 501.792L273.864 500.712C273.312 500.064 272.184 499.272 271.2 498.744L270.264 499.728ZM269.76 494.52H268.08V503.448C267 503.592 265.992 503.736 265.176 503.832L265.44 505.416C267.576 505.08 270.48 504.648 273.264 504.216L273.168 502.68C272.016 502.872 270.864 503.04 269.76 503.208V494.52ZM276.552 494.568H274.896V503.688L273.456 503.88L273.696 505.44C275.904 505.056 278.928 504.576 281.784 504.12L281.736 502.632C279.936 502.92 278.16 503.208 276.552 503.424V494.568ZM281.736 494.52C281.832 502.056 282.552 505.968 285.048 505.968C286.248 505.968 286.848 505.392 287.04 502.968C286.632 502.824 286.104 502.512 285.792 502.2C285.696 503.856 285.552 504.288 285.168 504.288C284.064 504.288 283.416 501.336 283.488 494.52H281.736Z" fill="black"/>
<path d="M100.256 308.96C98.552 310.112 95.456 311.264 92.72 311.912C93.032 312.224 93.392 312.8 93.608 313.136C96.392 312.44 99.464 311.336 101.288 310.016L100.256 308.96ZM99.632 314.48C99.416 313.832 98.84 312.824 98.288 312.056L97.136 312.608C97.64 313.376 98.216 314.408 98.408 315.104L99.632 314.48ZM96.704 316.088C96.44 315.296 95.744 314.12 95.048 313.256L93.848 313.832C94.472 314.72 95.168 315.944 95.432 316.736L96.704 316.088ZM101.048 313.328C99.248 315.248 96.032 317.216 92.888 318.464C93.224 318.752 93.632 319.256 93.848 319.616C95.12 319.088 96.416 318.464 97.616 317.768C97.952 318.224 98.24 318.68 98.504 319.184C97.136 320.48 94.784 321.896 92.984 322.64C93.32 322.952 93.728 323.528 93.92 323.912C95.528 323.096 97.592 321.728 99.056 320.432C99.272 321.08 99.44 321.704 99.56 322.352C98 324.224 95.12 326.264 92.816 327.224C93.152 327.56 93.56 328.16 93.752 328.52C95.744 327.512 98.096 325.808 99.8 324.08C99.944 326.336 99.536 328.256 98.888 328.832C98.48 329.288 98.072 329.336 97.496 329.336C97.088 329.336 96.344 329.312 95.552 329.24C95.816 329.672 95.936 330.32 95.96 330.776C96.632 330.8 97.4 330.824 97.856 330.824C98.864 330.8 99.512 330.584 100.16 329.912C101.936 328.304 102.176 321.248 98.816 317.048C100.112 316.208 101.288 315.272 102.2 314.312L101.048 313.328ZM107.72 319.064V322.544H104.624V319.064H107.72ZM112.424 322.544H109.28V319.064H112.424V322.544ZM109.28 327.776V324.08H112.424V327.776H109.28ZM104.624 327.776V324.08H107.72V327.776H104.624ZM103.016 330.776H104.624V329.336H112.424V330.68H114.08V317.504H103.016V330.776ZM111.968 311.84V309.152H110.36V311.84H106.712V309.152H105.08V311.84H102.128V313.472H105.08V316.736H106.712V313.472H110.36V316.736H111.968V313.472H114.8V311.84H111.968Z" fill="black"/>
<path d="M94.544 505.68C95.864 504.456 96.656 502.392 97.16 500.616L95.672 500.064C95.216 501.792 94.376 503.688 93.104 504.816L94.544 505.68ZM98.912 500.76C99.296 502.104 99.512 503.904 99.464 505.032L101.048 504.792C101.048 503.664 100.832 501.888 100.4 500.544L98.912 500.76ZM102.8 500.664C103.376 501.888 103.832 503.496 103.952 504.48L105.44 504.096C105.296 503.112 104.768 501.528 104.192 500.328L102.8 500.664ZM109.592 487.152V488.904H98.096V487.152H109.592ZM98.096 491.952V490.128H109.592V491.952H98.096ZM114.704 496.2V494.88H98.096V493.272H111.344V485.832H104.024C104.36 485.304 104.696 484.68 104.984 484.08L102.944 483.792C102.776 484.368 102.464 485.16 102.152 485.832H96.344V499.248H112.256C111.992 502.488 111.68 503.808 111.32 504.216C111.128 504.384 110.912 504.408 110.504 504.408C110.12 504.408 109.04 504.408 107.936 504.336C108.152 504.72 108.344 505.368 108.368 505.776C109.544 505.872 110.672 505.872 111.272 505.824C111.896 505.776 112.328 505.632 112.736 505.224C113.336 504.576 113.672 502.896 113.984 498.576C114.008 498.36 114.032 497.88 114.032 497.88H98.096V496.2H114.704ZM109.616 502.872C109.304 502.056 108.56 500.784 107.84 499.824L106.568 500.328C107.264 501.264 108.008 502.584 108.296 503.424L109.616 502.872Z" fill="black"/>
<path d="M162.252 662.544C161.484 661.416 159.804 659.736 158.436 658.56L157.068 659.496C158.46 660.72 160.092 662.448 160.812 663.576L162.252 662.544ZM160.116 667.776C159.3 669.312 158.244 670.776 156.972 672.144C156.564 670.56 156.228 668.712 155.988 666.672H162.852V664.968H155.796C155.604 662.832 155.508 660.528 155.508 658.128H153.684C153.708 660.48 153.804 662.784 154.02 664.968H148.524V660.792C149.988 660.48 151.38 660.096 152.532 659.688L151.26 658.224C149.004 659.064 145.14 659.88 141.78 660.384C142.02 660.816 142.26 661.44 142.356 661.872C143.772 661.68 145.284 661.44 146.772 661.152V664.968H141.636V666.672H146.772V670.872C144.684 671.304 142.74 671.712 141.3 671.952L141.804 673.752C143.244 673.44 144.972 673.032 146.772 672.648V677.52C146.772 677.952 146.628 678.072 146.196 678.072C145.788 678.096 144.372 678.12 142.836 678.048C143.1 678.552 143.412 679.368 143.508 679.848C145.452 679.848 146.748 679.8 147.492 679.512C148.236 679.224 148.524 678.696 148.524 677.544V672.216C149.988 671.88 151.476 671.544 152.94 671.184L152.82 669.576C151.404 669.888 149.94 670.2 148.524 670.512V666.672H154.164C154.476 669.264 154.932 671.64 155.508 673.632C153.804 675.216 151.836 676.536 149.82 677.52C150.276 677.904 150.78 678.504 151.044 678.936C152.844 678 154.548 676.8 156.108 675.408C157.212 678.216 158.652 679.896 160.548 679.896C162.348 679.896 162.972 678.744 163.308 674.784C162.804 674.616 162.18 674.208 161.796 673.824C161.652 676.896 161.364 678.12 160.716 678.12C159.516 678.12 158.436 676.584 157.524 674.064C159.204 672.36 160.62 670.464 161.7 668.424L160.116 667.776ZM172.572 668.376H167.532V663.36H172.572V668.376ZM167.532 675.72V669.96H172.572V675.72H167.532ZM169.548 657.864C169.38 658.992 168.948 660.6 168.588 661.752H165.9V679.224H167.532V677.328H174.204V661.752H170.22C170.628 660.72 171.06 659.4 171.468 658.224L169.548 657.864ZM185.94 661.68H178.764C179.172 660.552 179.508 659.4 179.796 658.224L178.092 657.816C177.324 661.104 176.028 664.416 174.42 666.528C174.804 666.768 175.572 667.248 175.884 667.536C176.724 666.408 177.468 664.944 178.14 663.336H184.236C183.924 672.888 183.564 676.536 182.772 677.376C182.532 677.688 182.268 677.736 181.788 677.736C181.236 677.736 179.796 677.736 178.236 677.592C178.572 678.096 178.788 678.816 178.836 679.344C180.18 679.416 181.548 679.464 182.388 679.368C183.204 679.296 183.756 679.08 184.284 678.408C185.244 677.232 185.556 673.536 185.94 662.592V661.68ZM182.148 672.48C181.38 671.064 179.724 668.76 178.38 667.056L176.988 667.872C178.308 669.6 179.916 671.976 180.636 673.416L182.148 672.48ZM195.924 662.328L195.588 662.4H193.668V657.936H191.94V662.4H188.676V664.032H194.7C193.164 667.2 190.428 670.2 187.812 671.904C188.076 672.24 188.556 673.056 188.724 673.512C189.804 672.768 190.884 671.808 191.94 670.68V679.776H193.668V669.504C194.556 670.392 195.684 671.616 196.188 672.264L197.22 670.8C196.74 670.32 194.988 668.712 194.124 668.04C195.252 666.48 196.236 664.752 196.908 662.976L195.924 662.328ZM204.396 671.472V668.304H208.044V671.472H204.396ZM199.212 671.472V668.304H202.692V671.472H199.212ZM202.692 663.672V666.744H199.212V663.672H202.692ZM208.044 663.672V666.744H204.396V663.672H208.044ZM204.396 662.04V657.912H202.692V662.04H197.556V674.112H199.212V673.08H202.692V679.824H204.396V673.08H208.044V673.992H209.724V662.04H204.396ZM233.484 662.592C233.1 661.536 232.14 659.904 231.204 658.728L229.812 659.304C230.724 660.528 231.636 662.16 231.996 663.24L233.484 662.592ZM222.132 661.824H219.852V659.784H222.132V661.824ZM223.5 658.608H218.532V662.952H223.5V658.608ZM214.476 667.68H217.26V669.168H214.476V667.68ZM214.476 665.064H217.26V666.528H214.476V665.064ZM221.676 666.528H218.724V665.064H221.676V666.528ZM221.676 669.168H218.724V667.68H221.676V669.168ZM212.868 670.368H223.332V663.864H212.868V670.368ZM216.108 661.824H213.996V659.784H216.108V661.824ZM217.476 658.608H212.7V662.952H217.476V658.608ZM224.46 671.376H211.812V672.72H224.46V671.376ZM214.98 677.376V675.096H221.316V677.376H214.98ZM233.58 666.168V664.512H228.996V663.912V657.984H227.268V663.912V664.512H223.668V666.168H227.244C227.1 670.008 226.428 674.832 223.02 678.456V673.776H213.324V679.776H214.98V678.696H221.316V679.344H223.02V678.744C223.452 679.056 223.956 679.536 224.22 679.824C226.836 676.968 228.036 673.44 228.564 670.104C229.332 674.28 230.58 677.712 232.716 679.872C232.98 679.416 233.58 678.744 233.964 678.408C231.42 676.08 230.124 671.472 229.476 666.168H233.58Z" fill="black"/>
<path d="M255.686 412.372C263.245 412.372 269.372 406.245 269.372 398.686C269.372 391.127 263.245 385 255.686 385C248.127 385 242 391.127 242 398.686C242 406.245 248.127 412.372 255.686 412.372Z" fill="#D9AE58" stroke="#040000" stroke-width="2" stroke-miterlimit="10"/>
<path d="M308.314 412.372C315.872 412.372 322 406.245 322 398.686C322 391.127 315.872 385 308.314 385C300.755 385 294.628 391.127 294.628 398.686C294.628 406.245 300.755 412.372 308.314 412.372Z" fill="#D9AE58" stroke="#040000" stroke-width="2" stroke-miterlimit="10"/>
<path d="M302.693 412.409C308.146 412.409 312.566 407.989 312.566 402.537C312.566 397.084 308.146 392.664 302.693 392.664C297.241 392.664 292.821 397.084 292.821 402.537C292.821 407.989 297.241 412.409 302.693 412.409Z" fill="#F4E2C2"/>
<path d="M261.653 412.409C267.106 412.409 271.526 407.989 271.526 402.537C271.526 397.084 267.106 392.664 261.653 392.664C256.201 392.664 251.781 397.084 251.781 402.537C251.781 407.989 256.201 412.409 261.653 412.409Z" fill="#F4E2C2"/>
<path d="M259.609 465.748V412.956C259.609 412.956 259.609 392.463 282.912 392.153C282.912 392.153 305.047 392.463 305.814 412.573L306.124 465.766H259.609V465.748Z" fill="#D9AE58" stroke="#040000" stroke-width="2" stroke-miterlimit="10"/>
<path d="M271.142 415.967C273.118 415.967 274.719 414.366 274.719 412.39C274.719 410.415 273.118 408.814 271.142 408.814C269.167 408.814 267.566 410.415 267.566 412.39C267.566 414.366 269.167 415.967 271.142 415.967Z" fill="black" stroke="black" stroke-miterlimit="10"/>
<path d="M294.591 415.967C296.567 415.967 298.168 414.366 298.168 412.39C298.168 410.415 296.567 408.814 294.591 408.814C292.616 408.814 291.015 410.415 291.015 412.39C291.015 414.366 292.616 415.967 294.591 415.967Z" fill="black" stroke="black" stroke-miterlimit="10"/>
<path d="M314.774 421.971C314.774 421.971 306.726 418.23 298.679 422.883" stroke="black" stroke-width="2" stroke-miterlimit="10"/>
<path d="M315.303 432.883C315.303 432.883 308.715 426.934 299.664 429.015" stroke="black" stroke-width="2" stroke-miterlimit="10"/>
<path d="M250.942 421.971C250.942 421.971 258.989 418.23 267.037 422.883" stroke="black" stroke-width="2" stroke-miterlimit="10"/>
<path d="M250.431 432.883C250.431 432.883 257.018 426.934 266.069 429.015" stroke="black" stroke-width="2" stroke-miterlimit="10"/>
<path d="M282.858 440.657C290.416 440.657 296.544 435.42 296.544 428.96C296.544 422.5 290.416 417.263 282.858 417.263C275.299 417.263 269.172 422.5 269.172 428.96C269.172 435.42 275.299 440.657 282.858 440.657Z" fill="#F1DFC0" stroke="#040000" stroke-miterlimit="10"/>
<path d="M281.215 421.715H284.518C286.544 421.715 287.657 423.485 286.361 424.653L284.719 426.15C283.752 427.026 281.982 427.026 281.015 426.15L279.372 424.653C278.077 423.485 279.19 421.715 281.215 421.715Z" fill="black" stroke="black" stroke-miterlimit="10"/>
<path d="M274.993 433.248L282.675 426.715L290.54 434.051" stroke="black" stroke-width="2" stroke-miterlimit="10"/>
<path d="M71.5391 290.67V233.978C71.5391 233.978 71.5391 211.98 96.5547 211.646C96.5547 211.646 120.317 211.98 121.139 233.567L121.472 290.67H71.5391Z" fill="#F1DBBD" stroke="black" stroke-width="2" stroke-miterlimit="10"/>
<path d="M94.7329 241.951H98.2786C100.453 241.951 101.648 243.851 100.257 245.105L98.494 246.711C97.4558 247.652 95.5556 247.652 94.5174 246.711L92.7544 245.105C91.3439 243.832 92.5389 241.951 94.7329 241.951Z" fill="black" stroke="black" stroke-miterlimit="10"/>
<path d="M130.092 241.344C130.092 241.344 121.453 237.328 112.814 242.323" stroke="black" stroke-width="2" stroke-miterlimit="10"/>
<path d="M130.66 253.059C130.66 253.059 123.588 246.672 113.872 248.906" stroke="black" stroke-width="2" stroke-miterlimit="10"/>
<path d="M61.5681 241.344C61.5681 241.344 70.207 237.328 78.8459 242.323" stroke="black" stroke-width="2" stroke-miterlimit="10"/>
<path d="M61 253.059C61 253.059 68.0718 246.672 77.7881 248.906" stroke="black" stroke-width="2" stroke-miterlimit="10"/>
<path d="M106.643 236.133C108.764 236.133 110.483 234.432 110.483 232.333C110.483 230.234 108.764 228.532 106.643 228.532C104.523 228.532 102.804 230.234 102.804 232.333C102.804 234.432 104.523 236.133 106.643 236.133Z" fill="black" stroke="black" stroke-miterlimit="10"/>
<path d="M85.3103 236.133C87.4309 236.133 89.1499 234.432 89.1499 232.333C89.1499 230.234 87.4309 228.532 85.3103 228.532C83.1898 228.532 81.4708 230.234 81.4708 232.333C81.4708 234.432 83.1898 236.133 85.3103 236.133Z" fill="black" stroke="black" stroke-miterlimit="10"/>
<path d="M108.015 213.429C108.015 213.429 115.263 209.511 124.097 211.627C124.097 211.627 127.721 220.932 120.121 227.338C120.121 227.338 117.731 219.678 108.015 213.429Z" fill="#ECA368" stroke="black" stroke-width="2" stroke-miterlimit="10"/>
<path d="M84.135 213.527C84.135 213.527 76.8869 209.609 68.0521 211.725C68.0521 211.725 64.4281 221.03 72.0287 227.435C72.0287 227.455 74.4382 219.796 84.135 213.527Z" fill="#ECA368" stroke="black" stroke-width="2" stroke-miterlimit="10"/>
<path d="M108.015 251.374C108.015 251.374 99.9634 260.071 96.7116 248.69C96.6332 248.376 96.2023 248.337 96.0847 248.631C95.2228 250.806 92.1277 259.268 84.6053 252.02" stroke="black" stroke-width="2" stroke-miterlimit="10"/>
<path d="M115.032 56.544C114.264 55.416 112.584 53.736 111.216 52.56L109.848 53.496C111.24 54.72 112.872 56.448 113.592 57.576L115.032 56.544ZM112.896 61.776C112.08 63.312 111.024 64.776 109.752 66.144C109.344 64.56 109.008 62.712 108.768 60.672H115.632V58.968H108.576C108.384 56.832 108.288 54.528 108.288 52.128H106.464C106.488 54.48 106.584 56.784 106.8 58.968H101.304V54.792C102.768 54.48 104.16 54.096 105.312 53.688L104.04 52.224C101.784 53.064 97.92 53.88 94.56 54.384C94.8 54.816 95.04 55.44 95.136 55.872C96.552 55.68 98.064 55.44 99.552 55.152V58.968H94.416V60.672H99.552V64.872C97.464 65.304 95.52 65.712 94.08 65.952L94.584 67.752C96.024 67.44 97.752 67.032 99.552 66.648V71.52C99.552 71.952 99.408 72.072 98.976 72.072C98.568 72.096 97.152 72.12 95.616 72.048C95.88 72.552 96.192 73.368 96.288 73.848C98.232 73.848 99.528 73.8 100.272 73.512C101.016 73.224 101.304 72.696 101.304 71.544V66.216C102.768 65.88 104.256 65.544 105.72 65.184L105.6 63.576C104.184 63.888 102.72 64.2 101.304 64.512V60.672H106.944C107.256 63.264 107.712 65.64 108.288 67.632C106.584 69.216 104.616 70.536 102.6 71.52C103.056 71.904 103.56 72.504 103.824 72.936C105.624 72 107.328 70.8 108.888 69.408C109.992 72.216 111.432 73.896 113.328 73.896C115.128 73.896 115.752 72.744 116.088 68.784C115.584 68.616 114.96 68.208 114.576 67.824C114.432 70.896 114.144 72.12 113.496 72.12C112.296 72.12 111.216 70.584 110.304 68.064C111.984 66.36 113.4 64.464 114.48 62.424L112.896 61.776ZM125.832 62.376H120.792V57.36H125.832V62.376ZM120.792 69.72V63.96H125.832V69.72H120.792ZM122.808 51.864C122.64 52.992 122.208 54.6 121.848 55.752H119.16V73.224H120.792V71.328H127.464V55.752H123.48C123.888 54.72 124.32 53.4 124.728 52.224L122.808 51.864ZM139.2 55.68H132.024C132.432 54.552 132.768 53.4 133.056 52.224L131.352 51.816C130.584 55.104 129.288 58.416 127.68 60.528C128.064 60.768 128.832 61.248 129.144 61.536C129.984 60.408 130.728 58.944 131.4 57.336H137.496C137.184 66.888 136.824 70.536 136.032 71.376C135.792 71.688 135.528 71.736 135.048 71.736C134.496 71.736 133.056 71.736 131.496 71.592C131.832 72.096 132.048 72.816 132.096 73.344C133.44 73.416 134.808 73.464 135.648 73.368C136.464 73.296 137.016 73.08 137.544 72.408C138.504 71.232 138.816 67.536 139.2 56.592V55.68ZM135.408 66.48C134.64 65.064 132.984 62.76 131.64 61.056L130.248 61.872C131.568 63.6 133.176 65.976 133.896 67.416L135.408 66.48ZM144.432 55.056H161.568V57.12H163.248V53.592H153.84V51.912H152.088V53.592H142.824V57.12H144.432V55.056ZM145.392 69.048V67.56H150.576V69.048H145.392ZM150.576 64.992V66.432H145.392V64.992H150.576ZM152.208 63.72H143.808V73.824H145.392V70.152H150.576V72.168C150.576 72.384 150.504 72.456 150.216 72.48C149.976 72.48 149.136 72.48 148.2 72.456C148.392 72.84 148.608 73.392 148.68 73.776C150 73.776 150.912 73.776 151.464 73.56C152.04 73.344 152.208 72.936 152.208 72.144V63.72ZM149.928 58.968C149.688 59.664 149.328 60.576 149.016 61.2H146.664C146.544 60.6 146.28 59.688 145.944 58.968H149.928ZM150.888 58.968H153.192V57.648H148.752V56.016H147.192V57.648H142.896V58.968H144.888L144.408 59.064C144.696 59.712 144.984 60.552 145.104 61.2H142.368V62.568H153.576V61.2H150.576C150.864 60.6 151.2 59.88 151.512 59.136L150.888 58.968ZM157.44 72.336C156.312 72.336 156.12 72.168 156.12 71.448V70.776H162.504C162.408 72.096 162.24 72.336 161.472 72.336H157.44ZM162.888 70.776V69.72H156.12V68.568H162.12V67.512H156.12V66.36H162.24V65.304H156.12V64.152H162.744V60.264H156.12V58.968H163.008V57.744H156.12V56.208H154.512V61.44H161.088V62.976H154.512V71.472C154.512 73.296 155.136 73.704 157.296 73.704H161.616C163.296 73.704 163.8 73.152 163.992 71.184C163.632 71.088 163.2 70.944 162.84 70.776H162.888ZM175.056 64.152L174.816 62.568L172.032 63.432V58.536H174.48V56.808H172.032V51.936H170.376V56.808H168.528C168.696 55.752 168.864 54.648 168.984 53.568L167.424 53.304C167.136 56.232 166.68 59.256 165.768 61.296C166.152 61.44 166.824 61.872 167.136 62.088C167.568 61.104 167.904 59.88 168.192 58.536H170.376V63.888C168.696 64.416 167.16 64.824 165.936 65.16L166.416 66.864C167.592 66.504 168.96 66.072 170.376 65.64V73.848H172.032V65.112L175.056 64.152ZM178.392 55.92C178.8 54.744 179.16 53.52 179.448 52.248L177.816 51.912C177.024 55.536 175.584 58.992 173.616 61.128C173.976 61.368 174.696 61.872 174.984 62.16C176.016 60.936 176.928 59.352 177.72 57.6H179.784C178.68 61.44 176.544 65.448 174 67.44C174.504 67.704 175.08 68.112 175.416 68.472C178.032 66.192 180.24 61.704 181.32 57.6H183.288C182.04 63.624 179.448 69.528 175.512 72.36C176.04 72.624 176.664 73.056 177 73.44C180.984 70.272 183.624 63.888 184.824 57.6H185.976C185.496 67.104 184.968 70.656 184.2 71.496C183.936 71.808 183.696 71.904 183.312 71.904C182.832 71.904 181.872 71.88 180.792 71.784C181.104 72.264 181.272 73.008 181.296 73.536C182.352 73.608 183.384 73.632 184.032 73.536C184.752 73.464 185.232 73.248 185.688 72.624C186.648 71.424 187.176 67.704 187.704 56.832C187.728 56.616 187.728 55.92 187.728 55.92H178.392ZM207.144 56.208H194.736V54.264H207.144V56.208ZM207.144 59.448H194.736V57.504H207.144V59.448ZM208.92 52.896H192.984V60.816H208.92V52.896ZM202.08 68.28H210V66.696H202.08V64.032H211.56V62.424H190.488V64.032H200.328V71.256C198.264 70.704 196.728 69.6 195.792 67.44C196.032 66.672 196.248 65.88 196.416 65.04L194.616 64.8C193.968 68.304 192.456 70.992 189.96 72.6C190.344 72.888 191.04 73.56 191.28 73.872C192.84 72.72 194.088 71.232 195.024 69.36C196.968 72.6 200.016 73.368 204.84 73.368H211.368C211.464 72.84 211.752 72.072 211.992 71.664C210.768 71.688 205.8 71.688 204.912 71.688C203.904 71.688 202.944 71.64 202.08 71.544V68.28ZM218.616 55.2V66.192H216.24V55.2H218.616ZM220.08 67.776V53.592H214.8V69.744H216.24V67.776H220.08ZM224.184 64.416C224.352 62.928 224.4 61.512 224.4 60.264H226.392C226.368 61.848 226.368 63.216 226.344 64.416H224.184ZM224.4 54.648H226.416L226.392 58.728H224.4V54.648ZM228.672 60.264V58.728H227.88L227.904 54V53.088H220.824V54.648H222.912V58.728H221.112V60.264H222.912C222.912 61.536 222.864 62.952 222.696 64.416H220.92V65.976H222.48C222.024 68.376 221.136 70.776 219.432 72.768C219.744 72.984 220.32 73.56 220.512 73.872C222.456 71.64 223.464 68.784 223.944 65.976H226.32C226.248 69.72 226.104 71.304 225.864 71.76C225.672 72.168 225.528 72.24 225.216 72.216C224.808 72.216 224.064 72.216 223.224 72.168C223.464 72.6 223.608 73.296 223.632 73.752C224.472 73.8 225.288 73.8 225.864 73.704C226.488 73.632 226.872 73.464 227.232 72.792C227.616 72.168 227.76 70.344 227.832 65.976H228.696V64.416H227.856C227.856 63.192 227.88 61.824 227.88 60.264H228.672ZM234.648 53.016L234.408 53.088H229.488V73.824H231.024V54.6H233.856C233.4 56.496 232.68 59.184 232.008 61.248C233.64 63.384 233.976 65.256 233.976 66.72C233.976 67.608 233.88 68.4 233.568 68.688C233.352 68.856 233.112 68.904 232.824 68.904C232.536 68.928 232.104 68.928 231.648 68.88C231.888 69.336 232.008 70.008 232.032 70.416C232.512 70.464 233.016 70.44 233.424 70.392C233.88 70.32 234.312 70.2 234.6 69.96C235.248 69.456 235.488 68.328 235.488 66.936C235.464 65.256 235.104 63.312 233.448 61.08C234.216 58.896 235.08 55.944 235.752 53.664L234.648 53.016ZM247.152 65.064C246.672 64.512 244.632 62.4 243.888 61.776V60.312H246.888V58.632H243.888V54.576C245.016 54.312 246.072 53.976 246.936 53.616L245.688 52.272C243.936 53.064 240.792 53.76 238.104 54.192C238.32 54.6 238.56 55.176 238.656 55.584C239.76 55.416 240.984 55.224 242.16 54.984V58.632H238.248V60.312H241.92C240.96 63.048 239.304 66.144 237.792 67.824C238.08 68.256 238.512 68.952 238.68 69.456C239.904 67.992 241.176 65.592 242.16 63.168V73.776H243.888V63.504C244.704 64.488 245.688 65.808 246.072 66.48L247.152 65.064ZM249 65.496V63.576H252.36V65.496H249ZM249 60.528H252.36V62.4H249V60.528ZM257.52 60.528V62.4H254.064V60.528H257.52ZM257.52 65.496H254.064V63.576H257.52V65.496ZM254.064 71.856V69.984H259.248V68.544H254.064V66.84H259.128V59.184H254.064V57.576H259.608V56.112H254.064V54.36C256.128 54.168 258.048 53.904 259.56 53.568L258.48 52.224C255.792 52.824 250.824 53.232 246.84 53.4C247.008 53.736 247.224 54.36 247.248 54.744C248.856 54.696 250.632 54.624 252.36 54.504V56.112H246.408V57.576H252.36V59.184H247.416V66.84H252.36V68.544H247.152V69.984H252.36V71.856H245.784V73.344H260.064V71.856H254.064ZM271.68 66.192H273.648C273 62.592 278.736 61.848 278.736 58.224C278.736 55.464 276.576 53.736 273.192 53.736C270.576 53.736 268.704 54.84 267.12 56.52L268.416 57.72C269.808 56.256 271.32 55.536 272.952 55.536C275.4 55.536 276.6 56.736 276.6 58.392C276.6 61.128 270.936 62.208 271.68 66.192ZM272.712 72.12C273.552 72.12 274.248 71.496 274.248 70.536C274.248 69.576 273.552 68.928 272.712 68.928C271.848 68.928 271.152 69.576 271.152 70.536C271.152 71.496 271.848 72.12 272.712 72.12Z" fill="black"/>
<path d="M255.885 291.949V233.116C255.885 233.116 255.885 210.286 281.846 209.94C281.846 209.94 306.505 210.286 307.359 232.689L307.705 291.949H255.885Z" fill="#906526" stroke="black" stroke-width="2" stroke-miterlimit="10"/>
<path d="M268.733 236.47C270.934 236.47 272.718 234.686 272.718 232.486C272.718 230.285 270.934 228.501 268.733 228.501C266.532 228.501 264.749 230.285 264.749 232.486C264.749 234.686 266.532 236.47 268.733 236.47Z" fill="black" stroke="black" stroke-miterlimit="10"/>
<path d="M294.856 236.47C297.057 236.47 298.841 234.686 298.841 232.486C298.841 230.285 297.057 228.501 294.856 228.501C292.656 228.501 290.872 230.285 290.872 232.486C290.872 234.686 292.656 236.47 294.856 236.47Z" fill="black" stroke="black" stroke-miterlimit="10"/>
<path d="M305.245 222.301C305.245 222.301 314.149 220.39 319.435 229.558C319.435 229.558 326.408 243.362 317.361 248.668C317.361 248.668 310.693 251.616 307.969 244.236C307.949 244.236 308.599 231.53 305.245 222.301Z" fill="#6A4B2E" stroke="black" stroke-width="2" stroke-miterlimit="10"/>
<path d="M257.755 222.301C257.755 222.301 248.851 220.39 243.565 229.558C243.565 229.558 236.592 243.362 245.639 248.668C245.639 248.668 252.307 251.616 255.031 244.236C255.051 244.236 254.401 231.53 257.755 222.301Z" fill="#6A4B2E" stroke="black" stroke-width="2" stroke-miterlimit="10"/>
<path d="M279.366 237.792H284.204C287.192 237.792 288.819 240.394 286.928 242.101L284.509 244.297C283.106 245.578 280.484 245.578 279.081 244.297L276.662 242.101C274.751 240.373 276.397 237.792 279.366 237.792Z" fill="black" stroke="black" stroke-miterlimit="10"/>
<path d="M273.124 253.222L281.703 245.964L290.445 254.136" stroke="black" stroke-width="2" stroke-miterlimit="10"/>
<path d="M294.856 212.949C294.856 212.949 303.578 206.728 293.698 202.317C293.698 202.317 299.41 192.396 287.741 193.372C287.741 193.372 281.642 186.358 277.861 193.9C277.861 193.9 269.038 190.851 270.461 197.865C270.461 197.865 263.915 201.036 267.412 205.061C267.412 205.061 263.143 210.388 268.713 212.197C268.733 212.156 281.114 206.708 294.856 212.949Z" fill="#6A4B2E" stroke="black" stroke-width="2" stroke-miterlimit="10"/>
<path d="M71.0194 466.038V410.03C71.0194 410.03 71.0194 388.296 95.7337 387.967C95.7337 387.967 119.209 388.296 120.022 409.623L120.351 466.038H71.0194Z" fill="white" stroke="black" stroke-width="2" stroke-miterlimit="10"/>
<path d="M82.8829 414.558C84.9778 414.558 86.6761 412.86 86.6761 410.765C86.6761 408.67 84.9778 406.972 82.8829 406.972C80.7879 406.972 79.0896 408.67 79.0896 410.765C79.0896 412.86 80.7879 414.558 82.8829 414.558Z" fill="black" stroke="black" stroke-miterlimit="10"/>
<path d="M107.752 414.558C109.847 414.558 111.545 412.86 111.545 410.765C111.545 408.67 109.847 406.972 107.752 406.972C105.657 406.972 103.959 408.67 103.959 410.765C103.959 412.86 105.657 414.558 107.752 414.558Z" fill="black" stroke="black" stroke-miterlimit="10"/>
<path d="M120.37 465.961C120.37 465.961 133.918 467.664 135.195 455.452C135.195 455.452 138.059 443.434 123.719 435.17C122.248 434.318 120.37 435.383 120.37 437.047V465.961Z" fill="#D3AF7C" stroke="black" stroke-width="2" stroke-miterlimit="10"/>
<path d="M71.0581 465.961C71.0581 465.961 57.5107 467.664 56.2334 455.452C56.2334 455.452 53.3691 443.434 67.7099 435.17C69.1808 434.318 71.0581 435.383 71.0581 437.047V465.961Z" fill="#D3AF7C" stroke="black" stroke-width="2" stroke-miterlimit="10"/>
<path d="M90.8178 387.967C90.8178 387.967 90.3339 377.806 95.7142 375C95.7142 375 101.443 378.619 100.533 387.967C100.533 387.967 96.798 386.438 90.8178 387.967Z" fill="#D3AF7C" stroke="black" stroke-width="2" stroke-miterlimit="10"/>
<path d="M112.61 428.551C115.645 428.551 118.106 426.09 118.106 423.054C118.106 420.019 115.645 417.558 112.61 417.558C109.574 417.558 107.114 420.019 107.114 423.054C107.114 426.09 109.574 428.551 112.61 428.551Z" fill="#D7B995"/>
<path d="M78.4899 428.551C81.5254 428.551 83.9862 426.09 83.9862 423.054C83.9862 420.019 81.5254 417.558 78.4899 417.558C75.4543 417.558 72.9935 420.019 72.9935 423.054C72.9935 426.09 75.4543 428.551 78.4899 428.551Z" fill="#D7B995"/>
<path d="M83.8894 421.99L91.6114 417.19C93.6435 415.913 96.8949 415.797 99.0818 416.9L107.172 420.984C110.133 422.474 109.707 425.377 106.359 426.596L98.5593 429.46C97.011 430.022 95.1338 430.099 93.5081 429.673L85.4958 427.525C81.9348 426.577 81.1026 423.712 83.8894 421.99Z" fill="#BB8682" stroke="black" stroke-miterlimit="10"/>
<path d="M81.354 424.545C81.354 424.545 95.4045 427.235 110.055 423.248" stroke="#040000" stroke-width="0.5" stroke-miterlimit="10"/>
<path d="M171.053 640.038V586.151C171.053 586.151 171.388 569.318 193.5 560.5C193.5 560.5 161.217 556.048 162.677 578.832C162.677 578.832 143.908 583.731 157.164 598.216C157.164 598.216 141.584 606.553 156.376 617.599C156.376 617.599 144.984 631.431 164.656 639.193C164.656 639.193 167.442 640.364 171.053 640.038Z" fill="#DBA8CC" stroke="#040000" stroke-width="2" stroke-miterlimit="10"/>
<path d="M171.053 640.038V584.441C171.053 584.441 171.053 562.867 195.586 562.541C195.586 562.541 218.889 562.867 219.696 584.038L220.022 640.038" fill="white"/>
<path d="M171.053 640.038V584.441C171.053 584.441 171.053 562.867 195.586 562.541C195.586 562.541 218.889 562.867 219.696 584.038L220.022 640.038H171.053Z" stroke="black" stroke-width="2" stroke-miterlimit="10"/>
<path d="M182.83 588.956C184.909 588.956 186.595 587.27 186.595 585.191C186.595 583.111 184.909 581.425 182.83 581.425C180.75 581.425 179.064 583.111 179.064 585.191C179.064 587.27 180.75 588.956 182.83 588.956Z" fill="black" stroke="black" stroke-miterlimit="10"/>
<path d="M207.516 588.956C209.595 588.956 211.281 587.27 211.281 585.191C211.281 583.111 209.595 581.425 207.516 581.425C205.436 581.425 203.75 583.111 203.75 585.191C203.75 587.27 205.436 588.956 207.516 588.956Z" fill="black" stroke="black" stroke-miterlimit="10"/>
<path d="M188.766 564.654C190.495 566.172 196.374 570.456 202.348 564.616C202.617 564.347 202.694 563.943 202.579 563.597L197.2 548.344C196.911 547.518 195.778 547.479 195.413 548.267L188.535 563.54C188.363 563.924 188.459 564.366 188.766 564.654Z" fill="#E73483" stroke="#040000" stroke-width="2" stroke-miterlimit="10"/>
<path d="M210.378 621.557C222.769 618.349 217.429 607.61 217.429 607.61C211.281 592.01 195.912 593.009 195.912 593.009C180.813 592.99 174.185 606.803 174.185 606.803C168.268 620.846 182.503 621.903 182.503 621.903C182.503 621.903 201.541 623.843 210.378 621.557Z" fill="white" stroke="black" stroke-width="2" stroke-miterlimit="10"/>
<path d="M191.225 601.02C192.084 601.02 192.781 600.324 192.781 599.464C192.781 598.605 192.084 597.908 191.225 597.908C190.366 597.908 189.669 598.605 189.669 599.464C189.669 600.324 190.366 601.02 191.225 601.02Z" fill="#DBA8CC"/>
<path d="M200.715 600.982C201.575 600.982 202.271 600.285 202.271 599.426C202.271 598.566 201.575 597.87 200.715 597.87C199.856 597.87 199.159 598.566 199.159 599.426C199.159 600.285 199.856 600.982 200.715 600.982Z" fill="#DBA8CC"/>
<path d="M187.882 610.818C187.882 610.818 196.47 618.56 203.174 610.818" stroke="#040000" stroke-miterlimit="10"/>
<path d="M212.53 567.593C212.53 567.593 214.739 564.231 218.581 563.367C218.581 563.367 224.095 561.83 223.999 566.152C223.999 566.152 223.057 572.78 218.043 575.105C218.043 575.105 215.719 569.226 212.53 567.593Z" fill="white" stroke="black" stroke-width="2" stroke-miterlimit="10"/>
<path d="M177.739 567.593C177.739 567.593 175.529 564.231 171.687 563.367C171.687 563.367 166.174 561.83 166.27 566.152C166.27 566.152 167.211 572.78 172.225 575.105C172.225 575.105 174.55 569.226 177.739 567.593Z" fill="white" stroke="black" stroke-width="2" stroke-miterlimit="10"/>
<path opacity="0.35" d="M336.812 18.6692C336.812 17.4726 337.782 16.5026 338.979 16.5026H355.469C356.666 16.5026 357.636 17.4726 357.636 18.6692V24.6692C357.636 25.8658 356.666 26.8359 355.469 26.8359H338.979C337.782 26.8359 336.812 25.8658 336.812 24.6692V18.6692Z" stroke="black"/>
<path opacity="0.4" d="M359.128 19.6692V23.6692C359.926 23.3304 360.445 22.5423 360.445 21.6692C360.445 20.7961 359.926 20.008 359.128 19.6692Z" fill="black"/>
<path d="M338.296 19.3359C338.296 18.5995 338.893 18.0026 339.629 18.0026H354.819C355.555 18.0026 356.152 18.5995 356.152 19.3359V24.0026C356.152 24.7389 355.555 25.3359 354.819 25.3359H339.629C338.893 25.3359 338.296 24.7389 338.296 24.0026V19.3359Z" fill="black"/>
<path fill-rule="evenodd" clip-rule="evenodd" d="M323.744 18.2773C325.942 18.2774 328.056 19.1289 329.649 20.6557C329.769 20.7735 329.961 20.772 330.079 20.6523L331.226 19.4857C331.286 19.4249 331.319 19.3427 331.318 19.2571C331.318 19.1715 331.284 19.0897 331.223 19.0297C327.042 14.9901 320.445 14.9901 316.264 19.0297C316.203 19.0896 316.169 19.1715 316.168 19.257C316.168 19.3426 316.201 19.4249 316.261 19.4857L317.408 20.6523C317.526 20.7722 317.718 20.7737 317.838 20.6557C319.431 19.1288 321.545 18.2773 323.744 18.2773ZM323.744 22.073C324.951 22.0729 326.116 22.5255 327.011 23.3427C327.132 23.4587 327.323 23.4562 327.441 23.337L328.587 22.1704C328.647 22.1092 328.68 22.0261 328.68 21.9399C328.679 21.8536 328.644 21.7713 328.582 21.7114C325.856 19.155 321.634 19.155 318.908 21.7114C318.846 21.7713 318.811 21.8537 318.81 21.9399C318.809 22.0262 318.843 22.1092 318.903 22.1704L320.049 23.337C320.167 23.4562 320.357 23.4587 320.478 23.3427C321.373 22.526 322.537 22.0735 323.744 22.073ZM326.038 24.6268C326.04 24.7133 326.006 24.7967 325.945 24.8573L323.964 26.873C323.906 26.9323 323.826 26.9656 323.744 26.9656C323.661 26.9656 323.582 26.9323 323.524 26.873L321.542 24.8573C321.481 24.7967 321.447 24.7133 321.449 24.6268C321.451 24.5403 321.488 24.4583 321.552 24.4003C322.817 23.3215 324.67 23.3215 325.936 24.4003C325.999 24.4584 326.037 24.5403 326.038 24.6268Z" fill="black"/>
<path fill-rule="evenodd" clip-rule="evenodd" d="M312.189 16.3359H311.197C310.65 16.3359 310.205 16.7837 310.205 17.3359V26.0026C310.205 26.5549 310.65 27.0026 311.197 27.0026H312.189C312.737 27.0026 313.181 26.5549 313.181 26.0026V17.3359C313.181 16.7837 312.737 16.3359 312.189 16.3359ZM306.568 18.6693H307.56C308.108 18.6693 308.552 19.117 308.552 19.6693V26.0026C308.552 26.5549 308.108 27.0026 307.56 27.0026H306.568C306.02 27.0026 305.576 26.5549 305.576 26.0026V19.6693C305.576 19.117 306.02 18.6693 306.568 18.6693ZM302.931 21.0026H301.939C301.391 21.0026 300.947 21.4503 300.947 22.0026V26.0026C300.947 26.5549 301.391 27.0026 301.939 27.0026H302.931C303.479 27.0026 303.923 26.5549 303.923 26.0026V22.0026C303.923 21.4503 303.479 21.0026 302.931 21.0026ZM298.301 23.0026H297.309C296.762 23.0026 296.317 23.4503 296.317 24.0026V26.0026C296.317 26.5549 296.762 27.0026 297.309 27.0026H298.301C298.849 27.0026 299.293 26.5549 299.293 26.0026V24.0026C299.293 23.4503 298.849 23.0026 298.301 23.0026Z" fill="black"/>
<path d="M38.4455 22.8765C37.9133 23.355 37.3176 23.5942 36.6584 23.5942C35.6916 23.5942 34.925 23.2671 34.3586 22.6128C33.7922 21.9585 33.509 21.0845 33.509 19.9907C33.509 19.3071 33.6677 18.6724 33.9851 18.0864C34.3025 17.5005 34.7468 17.0366 35.3181 16.6948C35.8943 16.353 36.529 16.1821 37.2224 16.1821C37.9255 16.1821 38.5603 16.3604 39.1267 16.7168C39.698 17.0684 40.1423 17.5688 40.4597 18.2183C40.7771 18.8628 40.9406 19.6074 40.9504 20.4521V21.397C40.9504 22.5737 40.7185 23.5942 40.2546 24.4585C39.7956 25.3228 39.1389 25.9868 38.2844 26.4507C37.4299 26.9146 36.4338 27.1465 35.2961 27.1465H35.1423V25.1689L35.6111 25.1616C37.3103 25.0786 38.2551 24.3169 38.4455 22.8765ZM37.3249 21.8145C37.862 21.8145 38.2478 21.5825 38.4821 21.1187V20.0933C38.4821 19.4097 38.3674 18.9043 38.1379 18.5771C37.9084 18.25 37.5984 18.0864 37.2077 18.0864C36.8611 18.0864 36.5705 18.272 36.3361 18.6431C36.1018 19.0142 35.9846 19.4634 35.9846 19.9907C35.9846 20.5474 36.1042 20.9917 36.3435 21.3237C36.5827 21.6509 36.9099 21.8145 37.3249 21.8145ZM43.5435 24.605C43.9341 24.605 44.2588 24.7222 44.5176 24.9565C44.7764 25.186 44.9058 25.4814 44.9058 25.8428C44.9058 26.2041 44.7764 26.502 44.5176 26.7363C44.2588 26.9658 43.9341 27.0806 43.5435 27.0806C43.148 27.0806 42.8208 26.9634 42.562 26.729C42.3081 26.4946 42.1812 26.1992 42.1812 25.8428C42.1812 25.4863 42.3081 25.1909 42.562 24.9565C42.8208 24.7222 43.148 24.605 43.5435 24.605ZM43.5435 18.7603C43.9341 18.7603 44.2588 18.8774 44.5176 19.1118C44.7764 19.3413 44.9058 19.6367 44.9058 19.998C44.9058 20.3594 44.7764 20.6572 44.5176 20.8916C44.2588 21.1211 43.9341 21.2358 43.5435 21.2358C43.148 21.2358 42.8208 21.1187 42.562 20.8843C42.3081 20.6499 42.1812 20.3545 42.1812 19.998C42.1812 19.6416 42.3081 19.3462 42.562 19.1118C42.8208 18.8774 43.148 18.7603 43.5435 18.7603ZM51.6517 27H49.1761V19.1191L46.7444 19.8296V17.9546L51.4246 16.3359H51.6517V27ZM61.0856 22.8325H62.1695V24.7368H61.0856V27H58.6173V24.7368H54.4938L54.3473 23.228L58.6173 16.3579V16.3359H61.0856V22.8325ZM56.6984 22.8325H58.6173V19.5513L58.4635 19.8003L56.6984 22.8325Z" fill="black"/>
</svg>
